<svg width="1382" height="773" viewBox="0 0 1382 773" fill="none" xmlns="http://www.w3.org/2000/svg">
<path d="M1095.63 81.6038L1068.6 66.0002C1062.86 62.6865 1055.52 64.653 1052.21 70.3925L1044 84.6112C1040.69 90.3508 1042.65 97.6898 1048.39 101.004L1072.61 114.987C1078.35 118.301 1085.69 116.334 1089 110.595L1102.07 87.9596C1102.7 86.8682 1102.33 85.4726 1101.24 84.8425V84.8425" stroke="#D6E8E8" stroke-width="2"/>
<rect x="1111.04" y="74.3089" width="3.74879" height="29.951" rx="1.87439" transform="rotate(61.0037 1111.04 74.3089)" stroke="#D6E8E8" stroke-width="2"/>
<line x1="1043.19" y1="86.0086" x2="1088.4" y2="111.767" stroke="#D6E8E8" stroke-width="2"/>
<path d="M1106.18 75.9614L1108.92 80.9467" stroke="#D6E8E8" stroke-width="2"/>
<path d="M1080.52 92.5351L1080.18 92.1695L1079.81 92.5107L1080.15 92.8762L1080.52 92.5351ZM1086.03 87.3922L1086.39 87.0511L1086.05 86.6856L1085.69 87.0267L1086.03 87.3922ZM1080.7 92.7284L1080.82 93.2144L1081.65 93.0135L1081.06 92.3872L1080.7 92.7284ZM1080.43 92.7942L1080.31 92.3081L1079.82 92.4254L1079.94 92.9115L1080.43 92.7942ZM1080.66 93.7663L1080.17 93.8836L1080.29 94.3696L1080.78 94.2523L1080.66 93.7663ZM1088.32 91.9173L1088.44 92.4033L1088.93 92.286L1088.81 91.8L1088.32 91.9173ZM1088.09 90.9452L1088.58 90.8279L1088.46 90.3418L1087.97 90.4591L1088.09 90.9452ZM1082.15 92.3776L1081.81 92.012L1080.42 93.3097L1082.27 92.8636L1082.15 92.3776ZM1086.71 88.1233L1087.05 88.4888L1087.42 88.1477L1087.08 87.7821L1086.71 88.1233ZM1080.86 92.9006L1086.37 87.7578L1085.69 87.0267L1080.18 92.1695L1080.86 92.9006ZM1081.06 92.3872L1080.88 92.1939L1080.15 92.8762L1080.33 93.0695L1081.06 92.3872ZM1080.54 93.2802L1080.82 93.2144L1080.58 92.2423L1080.31 92.3081L1080.54 93.2802ZM1081.15 93.649L1080.91 92.6769L1079.94 92.9115L1080.17 93.8836L1081.15 93.649ZM1088.21 91.4312L1080.54 93.2802L1080.78 94.2523L1088.44 92.4033L1088.21 91.4312ZM1087.6 91.0625L1087.84 92.0346L1088.81 91.8L1088.58 90.8279L1087.6 91.0625ZM1082.27 92.8636L1088.21 91.4312L1087.97 90.4591L1082.04 91.8915L1082.27 92.8636ZM1086.37 87.7578L1081.81 92.012L1082.49 92.7431L1087.05 88.4888L1086.37 87.7578ZM1085.66 87.7334L1086.35 88.4645L1087.08 87.7821L1086.39 87.0511L1085.66 87.7334Z" fill="#D6E8E8"/>
<rect x="1055.45" y="106.234" width="10.5105" height="9.54812" transform="rotate(30 1055.45 106.234)" stroke="#D6E8E8" stroke-width="2"/>
<line x1="1044.39" y1="110.875" x2="1066.48" y2="123.626" stroke="#D6E8E8" stroke-width="2"/>
<path d="M1066.13 82.2407C1064.11 82.4012 1062.1 82.5625 1060.09 82.7231C1061.23 84.3724 1062.36 86.0209 1063.49 87.6714" stroke="#D6E8E8" stroke-width="2" stroke-miterlimit="10"/>
<path d="M1073.3 83.1589C1070.6 85.4872 1067.9 87.8167 1065.19 90.1457" stroke="#D6E8E8" stroke-width="2" stroke-miterlimit="10"/>
<path d="M1074.17 86.8677C1075.1 88.6585 1076.03 90.4473 1076.96 92.2381C1074.95 92.149 1072.95 92.0618 1070.95 91.9726" stroke="#D6E8E8" stroke-width="2" stroke-miterlimit="10"/>
<path d="M1282.71 587.006H1251.5C1244.87 587.006 1239.5 592.378 1239.5 599.006V615.424C1239.5 622.052 1244.87 627.424 1251.5 627.424H1279.47C1286.1 627.424 1291.47 622.052 1291.47 615.424V589.288C1291.47 588.027 1290.45 587.006 1289.19 587.006V587.006" stroke="#D6E8E8" stroke-width="2"/>
<rect x="1292.41" y="572.98" width="3.74879" height="29.951" rx="1.87439" transform="rotate(31.0037 1292.41 572.98)" stroke="#D6E8E8" stroke-width="2"/>
<line x1="1239.5" y1="617.041" x2="1291.53" y2="616.743" stroke="#D6E8E8" stroke-width="2"/>
<path d="M1289.03 576.841L1293.89 579.789" stroke="#D6E8E8" stroke-width="2"/>
<path d="M1275.09 604.027L1274.61 603.881L1274.47 604.359L1274.94 604.505L1275.09 604.027ZM1277.29 596.818L1277.44 596.34L1276.96 596.194L1276.81 596.672L1277.29 596.818ZM1275.34 604.104L1275.69 604.467L1276.31 603.876L1275.49 603.626L1275.34 604.104ZM1275.14 604.298L1274.79 603.935L1274.43 604.28L1274.78 604.642L1275.14 604.298ZM1275.83 605.022L1275.47 605.367L1275.81 605.729L1276.17 605.385L1275.83 605.022ZM1281.54 599.589L1281.89 599.952L1282.25 599.607L1281.9 599.245L1281.54 599.589ZM1280.85 598.865L1281.21 598.52L1280.87 598.158L1280.51 598.503L1280.85 598.865ZM1276.43 603.074L1275.95 602.928L1275.39 604.747L1276.77 603.436L1276.43 603.074ZM1278.25 597.11L1278.72 597.256L1278.87 596.778L1278.39 596.632L1278.25 597.11ZM1275.57 604.173L1277.77 596.964L1276.81 596.672L1274.61 603.881L1275.57 604.173ZM1275.49 603.626L1275.24 603.549L1274.94 604.505L1275.2 604.583L1275.49 603.626ZM1275.48 604.66L1275.69 604.467L1275 603.742L1274.79 603.935L1275.48 604.66ZM1276.19 604.678L1275.5 603.953L1274.78 604.642L1275.47 605.367L1276.19 604.678ZM1281.2 599.227L1275.48 604.66L1276.17 605.385L1281.89 599.952L1281.2 599.227ZM1280.49 599.209L1281.18 599.934L1281.9 599.245L1281.21 598.52L1280.49 599.209ZM1276.77 603.436L1281.2 599.227L1280.51 598.503L1276.08 602.711L1276.77 603.436ZM1277.77 596.964L1275.95 602.928L1276.9 603.22L1278.72 597.256L1277.77 596.964ZM1277.14 597.296L1278.1 597.588L1278.39 596.632L1277.44 596.34L1277.14 597.296Z" fill="#D6E8E8"/>
<rect x="1260.23" y="628.424" width="10.5105" height="9.54812" stroke="#D6E8E8" stroke-width="2"/>
<line x1="1252.97" y1="637.972" x2="1278.48" y2="637.972" stroke="#D6E8E8" stroke-width="2"/>
<path d="M1257.48 602.308C1255.82 603.453 1254.16 604.598 1252.49 605.743C1254.3 606.604 1256.11 607.465 1257.91 608.327" stroke="#D6E8E8" stroke-width="2" stroke-miterlimit="10"/>
<path d="M1264.15 599.516C1262.97 602.883 1261.8 606.253 1260.62 609.62" stroke="#D6E8E8" stroke-width="2" stroke-miterlimit="10"/>
<path d="M1266.76 602.292C1268.46 603.379 1270.16 604.465 1271.85 605.552C1270.08 606.475 1268.3 607.4 1266.52 608.323" stroke="#D6E8E8" stroke-width="2" stroke-miterlimit="10"/>
<path d="M99.7092 56.0057H68.502C61.8745 56.0057 56.502 61.3783 56.502 68.0057V84.4241C56.502 91.0515 61.8745 96.4241 68.5019 96.4241H96.4685C103.096 96.4241 108.468 91.0515 108.468 84.4241V58.2875C108.468 57.0273 107.447 56.0057 106.187 56.0057V56.0057" stroke="#D6E8E8" stroke-width="2"/>
<rect x="109.412" y="41.9802" width="3.74879" height="29.951" rx="1.87439" transform="rotate(31.0037 109.412 41.9802)" stroke="#D6E8E8" stroke-width="2"/>
<line x1="56.4962" y1="86.0408" x2="108.53" y2="85.7426" stroke="#D6E8E8" stroke-width="2"/>
<path d="M106.03 45.8407L110.894 48.7888" stroke="#D6E8E8" stroke-width="2"/>
<path d="M92.0898 73.0271L91.6116 72.8811L91.4657 73.3593L91.9439 73.5053L92.0898 73.0271ZM94.2903 65.8182L94.4363 65.34L93.9581 65.194L93.8121 65.6722L94.2903 65.8182ZM92.3428 73.1043L92.6874 73.4666L93.3081 72.8761L92.4887 72.626L92.3428 73.1043ZM92.1395 73.2976L91.7949 72.9353L91.4326 73.2799L91.7772 73.6422L92.1395 73.2976ZM92.8287 74.0222L92.4664 74.3668L92.811 74.7291L93.1733 74.3845L92.8287 74.0222ZM98.5405 68.5894L98.8851 68.9517L99.2474 68.6071L98.9028 68.2448L98.5405 68.5894ZM97.8513 67.8648L98.2136 67.5202L97.869 67.1579L97.5067 67.5025L97.8513 67.8648ZM93.4265 72.0735L92.9482 71.9275L92.393 73.7465L93.7711 72.4358L93.4265 72.0735ZM95.2468 66.1101L95.725 66.2561L95.871 65.7779L95.3927 65.6319L95.2468 66.1101ZM92.5681 73.173L94.7686 65.9642L93.8121 65.6722L91.6116 72.8811L92.5681 73.173ZM92.4887 72.626L92.2358 72.5488L91.9439 73.5053L92.1968 73.5825L92.4887 72.626ZM92.4841 73.6599L92.6874 73.4666L91.9982 72.742L91.7949 72.9353L92.4841 73.6599ZM93.191 73.6776L92.5018 72.953L91.7772 73.6422L92.4664 74.3668L93.191 73.6776ZM98.1959 68.2271L92.4841 73.6599L93.1733 74.3845L98.8851 68.9517L98.1959 68.2271ZM97.489 68.2094L98.1782 68.934L98.9028 68.2448L98.2136 67.5202L97.489 68.2094ZM93.7711 72.4358L98.1959 68.2271L97.5067 67.5025L93.0819 71.7112L93.7711 72.4358ZM94.7686 65.9642L92.9482 71.9275L93.9047 72.2195L95.725 66.2561L94.7686 65.9642ZM94.1444 66.2964L95.1008 66.5883L95.3927 65.6319L94.4363 65.34L94.1444 66.2964Z" fill="#D6E8E8"/>
<rect x="77.2305" y="97.4239" width="10.5105" height="9.54812" stroke="#D6E8E8" stroke-width="2"/>
<line x1="69.9746" y1="106.972" x2="95.4767" y2="106.972" stroke="#D6E8E8" stroke-width="2"/>
<path d="M74.4775 71.3082C72.8159 72.453 71.1557 73.5977 69.4941 74.7424C71.3011 75.6035 73.1067 76.4647 74.9137 77.3273" stroke="#D6E8E8" stroke-width="2" stroke-miterlimit="10"/>
<path d="M81.151 68.5156C79.9745 71.8833 78.798 75.2525 77.623 78.6202" stroke="#D6E8E8" stroke-width="2" stroke-miterlimit="10"/>
<path d="M83.7593 71.2919C85.458 72.379 87.1552 73.4647 88.8539 74.5518C87.0766 75.475 85.3008 76.3996 83.5234 77.3228" stroke="#D6E8E8" stroke-width="2" stroke-miterlimit="10"/>
<path d="M1273.78 273.55L1251.72 295.617C1247.03 300.304 1247.03 307.902 1251.72 312.588L1263.33 324.197C1268.01 328.884 1275.61 328.884 1280.3 324.197L1300.07 304.422C1304.76 299.736 1304.76 292.138 1300.07 287.452L1281.59 268.97C1280.7 268.079 1279.25 268.079 1278.36 268.97V268.97" stroke="#D6E8E8" stroke-width="2"/>
<rect x="1270.73" y="256.772" width="3.74879" height="29.951" rx="1.87439" transform="rotate(-13.9963 1270.73 256.772)" stroke="#D6E8E8" stroke-width="2"/>
<line x1="1264.46" y1="325.344" x2="1301.05" y2="288.34" stroke="#D6E8E8" stroke-width="2"/>
<path d="M1271.07 261.893L1276.59 260.538" stroke="#D6E8E8" stroke-width="2"/>
<path d="M1280.43 290.974L1279.99 291.209L1280.22 291.65L1280.67 291.415L1280.43 290.974ZM1276.89 284.321L1276.66 283.879L1276.21 284.114L1276.45 284.556L1276.89 284.321ZM1280.66 290.85L1281.16 290.862L1281.19 290.006L1280.43 290.408L1280.66 290.85ZM1280.66 291.13L1280.16 291.118L1280.15 291.618L1280.65 291.63L1280.66 291.13ZM1281.66 291.155L1281.65 291.655L1282.14 291.668L1282.16 291.168L1281.66 291.155ZM1281.85 283.275L1282.35 283.287L1282.37 282.787L1281.87 282.775L1281.85 283.275ZM1280.86 283.25L1280.87 282.75L1280.37 282.737L1280.36 283.237L1280.86 283.25ZM1280.7 289.355L1280.26 289.59L1281.15 291.268L1281.2 289.367L1280.7 289.355ZM1277.77 283.851L1278.21 283.616L1277.98 283.174L1277.54 283.409L1277.77 283.851ZM1280.87 290.739L1277.33 284.086L1276.45 284.556L1279.99 291.209L1280.87 290.739ZM1280.43 290.408L1280.2 290.533L1280.67 291.415L1280.9 291.291L1280.43 290.408ZM1281.16 291.143L1281.16 290.862L1280.17 290.837L1280.16 291.118L1281.16 291.143ZM1281.67 290.655L1280.67 290.63L1280.65 291.63L1281.65 291.655L1281.67 290.655ZM1281.36 283.262L1281.16 291.143L1282.16 291.168L1282.35 283.287L1281.36 283.262ZM1280.84 283.75L1281.84 283.775L1281.87 282.775L1280.87 282.75L1280.84 283.75ZM1281.2 289.367L1281.36 283.262L1280.36 283.237L1280.2 289.342L1281.2 289.367ZM1277.33 284.086L1280.26 289.59L1281.14 289.12L1278.21 283.616L1277.33 284.086ZM1277.12 284.762L1278.01 284.292L1277.54 283.409L1276.66 283.879L1277.12 284.762Z" fill="#D6E8E8"/>
<rect x="1287.17" y="318.732" width="10.5105" height="9.54812" transform="rotate(-45 1287.17 318.732)" stroke="#D6E8E8" stroke-width="2"/>
<line x1="1288.8" y1="330.614" x2="1306.83" y2="312.581" stroke="#D6E8E8" stroke-width="2"/>
<path d="M1266.76 302.212C1266.4 304.196 1266.03 306.18 1265.67 308.164C1267.55 307.495 1269.44 306.827 1271.33 306.16" stroke="#D6E8E8" stroke-width="2" stroke-miterlimit="10"/>
<path d="M1269.51 295.519C1271.06 298.732 1272.61 301.946 1274.16 305.158" stroke="#D6E8E8" stroke-width="2" stroke-miterlimit="10"/>
<path d="M1273.31 295.637C1275.28 295.205 1277.25 294.772 1279.22 294.34C1278.62 296.249 1278.01 298.159 1277.41 300.068" stroke="#D6E8E8" stroke-width="2" stroke-miterlimit="10"/>
<path d="M836.026 250.423L805.882 258.5C799.481 260.215 795.682 266.795 797.397 273.197L801.646 289.056C803.362 295.458 809.942 299.256 816.343 297.541L843.357 290.303C849.758 288.588 853.557 282.008 851.842 275.606L845.077 250.36C844.751 249.143 843.5 248.42 842.283 248.746V248.746" stroke="#D6E8E8" stroke-width="2"/>
<rect x="841.768" y="234.364" width="3.74879" height="29.951" rx="1.87439" transform="rotate(16.0037 841.768 234.364)" stroke="#D6E8E8" stroke-width="2"/>
<line x1="802.058" y1="290.619" x2="852.242" y2="276.864" stroke="#D6E8E8" stroke-width="2"/>
<path d="M839.5 238.968L844.962 240.557" stroke="#D6E8E8" stroke-width="2"/>
<path d="M833.071 268.837L832.571 268.819L832.554 269.319L833.054 269.336L833.071 268.837ZM833.331 261.304L833.348 260.804L832.848 260.787L832.831 261.287L833.331 261.304ZM833.336 268.846L833.763 269.106L834.209 268.376L833.353 268.346L833.336 268.846ZM833.19 269.085L832.763 268.824L832.502 269.251L832.929 269.511L833.19 269.085ZM834.043 269.606L833.782 270.033L834.209 270.294L834.47 269.867L834.043 269.606ZM838.154 262.88L838.581 263.141L838.842 262.714L838.415 262.454L838.154 262.88ZM837.301 262.359L837.562 261.932L837.135 261.671L836.874 262.098L837.301 262.359ZM834.115 267.571L833.615 267.554L833.55 269.454L834.542 267.832L834.115 267.571ZM834.33 261.338L834.83 261.356L834.847 260.856L834.347 260.839L834.33 261.338ZM833.571 268.854L833.83 261.321L832.831 261.287L832.571 268.819L833.571 268.854ZM833.353 268.346L833.088 268.337L833.054 269.336L833.319 269.345L833.353 268.346ZM833.616 269.346L833.763 269.106L832.909 268.585L832.763 268.824L833.616 269.346ZM834.304 269.18L833.451 268.658L832.929 269.511L833.782 270.033L834.304 269.18ZM837.728 262.62L833.616 269.346L834.47 269.867L838.581 263.141L837.728 262.62ZM837.04 262.785L837.893 263.307L838.415 262.454L837.562 261.932L837.04 262.785ZM834.542 267.832L837.728 262.62L836.874 262.098L833.688 267.31L834.542 267.832ZM833.83 261.321L833.615 267.554L834.615 267.588L834.83 261.356L833.83 261.321ZM833.313 261.804L834.313 261.838L834.347 260.839L833.348 260.804L833.313 261.804Z" fill="#D6E8E8"/>
<rect x="825.031" y="296.248" width="10.5105" height="9.54812" transform="rotate(-15 825.031 296.248)" stroke="#D6E8E8" stroke-width="2"/>
<line x1="820.495" y1="307.348" x2="845.128" y2="300.748" stroke="#D6E8E8" stroke-width="2"/>
<path d="M815.614 271.735C814.306 273.271 812.998 274.806 811.69 276.342C813.658 276.706 815.625 277.071 817.593 277.436" stroke="#D6E8E8" stroke-width="2" stroke-miterlimit="10"/>
<path d="M821.337 267.31C821.073 270.867 820.808 274.426 820.545 277.983" stroke="#D6E8E8" stroke-width="2" stroke-miterlimit="10"/>
<path d="M824.576 269.317C826.498 269.927 828.418 270.537 830.34 271.147C828.862 272.499 827.386 273.852 825.909 275.203" stroke="#D6E8E8" stroke-width="2" stroke-miterlimit="10"/>
<path d="M418.524 700.903L391.498 716.507C385.758 719.821 383.792 727.16 387.105 732.899L395.315 747.118C398.628 752.858 405.967 754.824 411.707 751.51L435.927 737.527C441.666 734.213 443.633 726.874 440.319 721.135L427.251 698.5C426.621 697.409 425.225 697.035 424.134 697.665V697.665" stroke="#D6E8E8" stroke-width="2"/>
<rect x="419.914" y="683.906" width="3.74879" height="29.951" rx="1.87439" transform="rotate(1.0037 419.914 683.906)" stroke="#D6E8E8" stroke-width="2"/>
<line x1="396.118" y1="748.521" x2="441.032" y2="722.246" stroke="#D6E8E8" stroke-width="2"/>
<path d="M418.915 688.94L424.602 689.061" stroke="#D6E8E8" stroke-width="2"/>
<path d="M420.435 719.454L419.947 719.567L420.06 720.054L420.547 719.941L420.435 719.454ZM418.736 712.111L418.623 711.624L418.136 711.736L418.249 712.224L418.736 712.111ZM420.693 719.394L421.172 719.536L421.415 718.714L420.58 718.907L420.693 719.394ZM420.614 719.663L420.134 719.522L419.993 720.001L420.472 720.143L420.614 719.663ZM421.573 719.946L421.431 720.426L421.911 720.567L422.052 720.088L421.573 719.946ZM423.803 712.385L424.283 712.527L424.424 712.047L423.944 711.906L423.803 712.385ZM422.844 712.102L422.985 711.623L422.506 711.481L422.364 711.961L422.844 712.102ZM421.116 717.961L420.628 718.074L421.057 719.927L421.595 718.103L421.116 717.961ZM419.71 711.886L420.197 711.773L420.084 711.286L419.597 711.398L419.71 711.886ZM420.922 719.342L419.223 711.998L418.249 712.224L419.947 719.567L420.922 719.342ZM420.58 718.907L420.322 718.967L420.547 719.941L420.806 719.882L420.58 718.907ZM421.093 719.805L421.172 719.536L420.213 719.253L420.134 719.522L421.093 719.805ZM421.714 719.467L420.755 719.184L420.472 720.143L421.431 720.426L421.714 719.467ZM423.323 712.244L421.093 719.805L422.052 720.088L424.283 712.527L423.323 712.244ZM422.702 712.582L423.662 712.865L423.944 711.906L422.985 711.623L422.702 712.582ZM421.595 718.103L423.323 712.244L422.364 711.961L420.636 717.82L421.595 718.103ZM419.223 711.998L420.628 718.074L421.603 717.849L420.197 711.773L419.223 711.998ZM418.848 712.598L419.823 712.373L419.597 711.398L418.623 711.624L418.848 712.598Z" fill="#D6E8E8"/>
<rect x="419.764" y="748.012" width="10.5105" height="9.54812" transform="rotate(-30 419.764 748.012)" stroke="#D6E8E8" stroke-width="2"/>
<line x1="418.254" y1="759.909" x2="440.339" y2="747.158" stroke="#D6E8E8" stroke-width="2"/>
<path d="M404.324 726.772C403.457 728.594 402.592 730.416 401.725 732.238C403.72 732.08 405.715 731.923 407.711 731.767" stroke="#D6E8E8" stroke-width="2" stroke-miterlimit="10"/>
<path d="M408.706 721.017C409.371 724.521 410.036 728.027 410.703 731.531" stroke="#D6E8E8" stroke-width="2" stroke-miterlimit="10"/>
<path d="M412.355 722.117C414.369 722.209 416.382 722.301 418.397 722.393C417.319 724.081 416.243 725.77 415.166 727.458" stroke="#D6E8E8" stroke-width="2" stroke-miterlimit="10"/>
<path d="M1012.26 715.679L982.113 707.602C975.711 705.887 969.131 709.686 967.416 716.088L963.166 731.947C961.451 738.348 965.25 744.928 971.652 746.644L998.665 753.882C1005.07 755.597 1011.65 751.798 1013.36 745.397L1020.13 720.151C1020.45 718.933 1019.73 717.682 1018.51 717.356V717.356" stroke="#D6E8E8" stroke-width="2"/>
<rect x="1025.26" y="704.643" width="3.74879" height="29.951" rx="1.87439" transform="rotate(46.0037 1025.26 704.643)" stroke="#D6E8E8" stroke-width="2"/>
<line x1="962.742" y1="733.507" x2="1013.08" y2="746.686" stroke="#D6E8E8" stroke-width="2"/>
<path d="M1020.99 707.497L1024.93 711.604" stroke="#D6E8E8" stroke-width="2"/>
<path d="M1000.49 730.149L1000.07 729.884L999.801 730.308L1000.22 730.573L1000.49 730.149ZM1004.48 723.755L1004.75 723.331L1004.32 723.066L1004.06 723.49L1004.48 723.755ZM1000.71 730.289L1000.95 730.728L1001.71 730.319L1000.98 729.865L1000.71 730.289ZM1000.47 730.423L1000.23 729.984L999.79 730.223L1000.03 730.662L1000.47 730.423ZM1000.95 731.302L1000.51 731.541L1000.75 731.98L1001.19 731.741L1000.95 731.302ZM1007.87 727.532L1008.11 727.971L1008.55 727.732L1008.31 727.293L1007.87 727.532ZM1007.39 726.654L1007.83 726.415L1007.59 725.976L1007.15 726.215L1007.39 726.654ZM1002.03 729.575L1001.6 729.31L1000.6 730.924L1002.27 730.014L1002.03 729.575ZM1005.33 724.285L1005.75 724.55L1006.02 724.125L1005.59 723.861L1005.33 724.285ZM1000.91 730.414L1004.91 724.02L1004.06 723.49L1000.07 729.884L1000.91 730.414ZM1000.98 729.865L1000.75 729.725L1000.22 730.573L1000.45 730.714L1000.98 729.865ZM1000.71 730.862L1000.95 730.728L1000.48 729.85L1000.23 729.984L1000.71 730.862ZM1001.39 731.063L1000.91 730.184L1000.03 730.662L1000.51 731.541L1001.39 731.063ZM1007.63 727.093L1000.71 730.862L1001.19 731.741L1008.11 727.971L1007.63 727.093ZM1006.95 726.893L1007.43 727.771L1008.31 727.293L1007.83 726.415L1006.95 726.893ZM1002.27 730.014L1007.63 727.093L1007.15 726.215L1001.79 729.136L1002.27 730.014ZM1004.91 724.02L1001.6 729.31L1002.45 729.84L1005.75 724.55L1004.91 724.02ZM1004.22 724.179L1005.06 724.709L1005.59 723.861L1004.75 723.331L1004.22 724.179Z" fill="#D6E8E8"/>
<rect x="979.822" y="749.868" width="10.5105" height="9.54812" transform="rotate(15 979.822 749.868)" stroke="#D6E8E8" stroke-width="2"/>
<line x1="970.343" y1="757.213" x2="994.976" y2="763.813" stroke="#D6E8E8" stroke-width="2"/>
<path d="M983.923 723.931C982.022 724.607 980.122 725.283 978.221 725.958C979.743 727.258 981.264 728.557 982.786 729.858" stroke="#D6E8E8" stroke-width="2" stroke-miterlimit="10"/>
<path d="M991.091 722.96C989.083 725.909 987.075 728.859 985.068 731.807" stroke="#D6E8E8" stroke-width="2" stroke-miterlimit="10"/>
<path d="M992.892 726.318C994.251 727.807 995.61 729.295 996.969 730.785C995.014 731.217 993.059 731.65 991.103 732.082" stroke="#D6E8E8" stroke-width="2" stroke-miterlimit="10"/>
<path d="M1352.26 25.6796L1322.11 17.6025C1315.71 15.8872 1309.13 19.6862 1307.42 26.0878L1303.17 41.9468C1301.45 48.3484 1305.25 54.9284 1311.65 56.6437L1338.67 63.882C1345.07 65.5973 1351.65 61.7983 1353.36 55.3967L1360.13 30.1507C1360.45 28.9334 1359.73 27.6822 1358.51 27.3561V27.3561" stroke="#D6E8E8" stroke-width="2"/>
<rect x="1365.26" y="14.6432" width="3.74879" height="29.951" rx="1.87439" transform="rotate(46.0037 1365.26 14.6432)" stroke="#D6E8E8" stroke-width="2"/>
<line x1="1302.74" y1="43.507" x2="1353.08" y2="56.6863" stroke="#D6E8E8" stroke-width="2"/>
<path d="M1360.99 17.4971L1364.93 21.6037" stroke="#D6E8E8" stroke-width="2"/>
<path d="M1340.49 40.1492L1340.07 39.8844L1339.8 40.3085L1340.22 40.5733L1340.49 40.1492ZM1344.48 33.7554L1344.75 33.3313L1344.32 33.0665L1344.06 33.4907L1344.48 33.7554ZM1340.71 40.2896L1340.95 40.7287L1341.71 40.3191L1340.98 39.8655L1340.71 40.2896ZM1340.47 40.4236L1340.23 39.9844L1339.79 40.2235L1340.03 40.6626L1340.47 40.4236ZM1340.95 41.3018L1340.51 41.5409L1340.75 41.98L1341.19 41.741L1340.95 41.3018ZM1347.87 37.5325L1348.11 37.9716L1348.55 37.7326L1348.31 37.2934L1347.87 37.5325ZM1347.39 36.6542L1347.83 36.4152L1347.59 35.976L1347.15 36.2151L1347.39 36.6542ZM1342.03 39.5752L1341.6 39.3104L1340.6 40.9237L1342.27 40.0143L1342.03 39.5752ZM1345.33 34.285L1345.75 34.5498L1346.02 34.1256L1345.59 33.8608L1345.33 34.285ZM1340.91 40.4139L1344.91 34.0202L1344.06 33.4907L1340.07 39.8844L1340.91 40.4139ZM1340.98 39.8655L1340.75 39.725L1340.22 40.5733L1340.45 40.7137L1340.98 39.8655ZM1340.71 40.8627L1340.95 40.7287L1340.48 39.8505L1340.23 39.9844L1340.71 40.8627ZM1341.39 41.0627L1340.91 40.1845L1340.03 40.6626L1340.51 41.5409L1341.39 41.0627ZM1347.63 37.0934L1340.71 40.8627L1341.19 41.741L1348.11 37.9716L1347.63 37.0934ZM1346.95 36.8933L1347.43 37.7716L1348.31 37.2934L1347.83 36.4152L1346.95 36.8933ZM1342.27 40.0143L1347.63 37.0934L1347.15 36.2151L1341.79 39.1361L1342.27 40.0143ZM1344.91 34.0202L1341.6 39.3104L1342.45 39.84L1345.75 34.5498L1344.91 34.0202ZM1344.22 34.1796L1345.06 34.7091L1345.59 33.8608L1344.75 33.3313L1344.22 34.1796Z" fill="#D6E8E8"/>
<rect x="1319.82" y="59.8682" width="10.5105" height="9.54812" transform="rotate(15 1319.82 59.8682)" stroke="#D6E8E8" stroke-width="2"/>
<line x1="1310.34" y1="67.2129" x2="1334.98" y2="73.8133" stroke="#D6E8E8" stroke-width="2"/>
<path d="M1323.92 33.9311C1322.02 34.6068 1320.12 35.2828 1318.22 35.9585C1319.74 37.258 1321.26 38.5571 1322.79 39.858" stroke="#D6E8E8" stroke-width="2" stroke-miterlimit="10"/>
<path d="M1331.09 32.9604C1329.08 35.9089 1327.07 38.8588 1325.07 41.8076" stroke="#D6E8E8" stroke-width="2" stroke-miterlimit="10"/>
<path d="M1332.89 36.3178C1334.25 37.8075 1335.61 39.2954 1336.97 40.7852C1335.01 41.2169 1333.06 41.6504 1331.1 42.0821" stroke="#D6E8E8" stroke-width="2" stroke-miterlimit="10"/>
<path d="M61.2565 439.68L31.1126 431.603C24.711 429.887 18.131 433.686 16.4157 440.088L12.1663 455.947C10.451 462.349 14.2499 468.929 20.6515 470.644L47.6651 477.882C54.0667 479.598 60.6468 475.799 62.3621 469.397L69.1267 444.151C69.4529 442.934 68.7305 441.682 67.5132 441.356V441.356" stroke="#D6E8E8" stroke-width="2"/>
<rect x="74.2584" y="428.643" width="3.74879" height="29.951" rx="1.87439" transform="rotate(46.0037 74.2584 428.643)" stroke="#D6E8E8" stroke-width="2"/>
<line x1="11.7416" y1="457.507" x2="62.0796" y2="470.687" stroke="#D6E8E8" stroke-width="2"/>
<path d="M69.9926 431.497L73.9282 435.604" stroke="#D6E8E8" stroke-width="2"/>
<path d="M49.4897 454.149L49.0655 453.885L48.8008 454.309L49.2249 454.573L49.4897 454.149ZM53.481 447.756L53.7458 447.331L53.3216 447.067L53.0568 447.491L53.481 447.756ZM49.7147 454.29L49.9537 454.729L50.7061 454.319L49.9794 453.866L49.7147 454.29ZM49.4686 454.424L49.2295 453.985L48.7904 454.224L49.0295 454.663L49.4686 454.424ZM49.9468 455.302L49.5076 455.541L49.7467 455.98L50.1859 455.741L49.9468 455.302ZM56.8701 451.533L57.1092 451.972L57.5483 451.733L57.3092 451.294L56.8701 451.533ZM56.3919 450.654L56.831 450.415L56.592 449.976L56.1528 450.215L56.3919 450.654ZM51.0268 453.575L50.6027 453.311L49.5956 454.924L51.2659 454.014L51.0268 453.575ZM54.3293 448.285L54.7534 448.55L55.0182 448.126L54.594 447.861L54.3293 448.285ZM49.9138 454.414L53.9051 448.02L53.0568 447.491L49.0655 453.885L49.9138 454.414ZM49.9794 453.866L49.7544 453.725L49.2249 454.573L49.4499 454.714L49.9794 453.866ZM49.7077 454.863L49.9537 454.729L49.4756 453.851L49.2295 453.985L49.7077 454.863ZM50.3859 455.063L49.9077 454.185L49.0295 454.663L49.5076 455.541L50.3859 455.063ZM56.631 451.093L49.7077 454.863L50.1859 455.741L57.1092 451.972L56.631 451.093ZM55.9528 450.893L56.4309 451.772L57.3092 451.294L56.831 450.415L55.9528 450.893ZM51.2659 454.014L56.631 451.093L56.1528 450.215L50.7877 453.136L51.2659 454.014ZM53.9051 448.02L50.6027 453.311L51.451 453.84L54.7534 448.55L53.9051 448.02ZM53.2162 448.18L54.0645 448.709L54.594 447.861L53.7458 447.331L53.2162 448.18Z" fill="#D6E8E8"/>
<rect x="28.8223" y="473.868" width="10.5105" height="9.54812" transform="rotate(15 28.8223 473.868)" stroke="#D6E8E8" stroke-width="2"/>
<line x1="19.3428" y1="481.213" x2="43.9759" y2="487.813" stroke="#D6E8E8" stroke-width="2"/>
<path d="M32.9229 447.931C31.0216 448.607 29.1218 449.283 27.2205 449.959C28.7431 451.258 30.2642 452.557 31.7864 453.858" stroke="#D6E8E8" stroke-width="2" stroke-miterlimit="10"/>
<path d="M40.0913 446.961C38.0833 449.909 36.0749 452.859 34.0683 455.808" stroke="#D6E8E8" stroke-width="2" stroke-miterlimit="10"/>
<path d="M41.8919 450.318C43.2514 451.808 44.6098 453.296 45.9692 454.785C44.0135 455.217 42.0589 455.65 40.1032 456.082" stroke="#D6E8E8" stroke-width="2" stroke-miterlimit="10"/>
<path d="M386.604 97.5926L371 124.619C367.686 130.358 369.653 137.697 375.392 141.011L389.611 149.22C395.351 152.534 402.69 150.568 406.003 144.828L419.987 120.608C423.3 114.869 421.334 107.53 415.594 104.216L392.959 91.1477C391.868 90.5176 390.472 90.8916 389.842 91.983V91.983" stroke="#D6E8E8" stroke-width="2"/>
<rect x="379.309" y="82.1767" width="3.74879" height="29.951" rx="1.87439" transform="rotate(-28.9963 379.309 82.1767)" stroke="#D6E8E8" stroke-width="2"/>
<line x1="391.008" y1="150.033" x2="416.767" y2="104.822" stroke="#D6E8E8" stroke-width="2"/>
<path d="M380.961 87.0356L385.947 84.297" stroke="#D6E8E8" stroke-width="2"/>
<path d="M397.534 112.702L397.169 113.043L397.51 113.409L397.875 113.068L397.534 112.702ZM392.391 107.192L392.05 106.827L391.685 107.168L392.026 107.533L392.391 107.192ZM397.728 112.521L398.214 112.404L398.013 111.571L397.387 112.156L397.728 112.521ZM397.794 112.794L397.308 112.911L397.425 113.397L397.911 113.28L397.794 112.794ZM398.766 112.559L398.883 113.046L399.369 112.928L399.252 112.442L398.766 112.559ZM396.917 104.897L397.403 104.779L397.286 104.293L396.8 104.41L396.917 104.897ZM395.945 105.131L395.827 104.645L395.341 104.762L395.459 105.248L395.945 105.131ZM397.377 111.069L397.012 111.41L398.31 112.8L397.863 110.951L397.377 111.069ZM393.122 106.51L393.488 106.169L393.147 105.803L392.781 106.144L393.122 106.51ZM397.9 112.361L392.757 106.851L392.026 107.533L397.169 113.043L397.9 112.361ZM397.387 112.156L397.193 112.337L397.875 113.068L398.069 112.887L397.387 112.156ZM398.28 112.677L398.214 112.404L397.242 112.639L397.308 112.911L398.28 112.677ZM398.649 112.073L397.676 112.308L397.911 113.28L398.883 113.046L398.649 112.073ZM396.431 105.014L398.28 112.677L399.252 112.442L397.403 104.779L396.431 105.014ZM396.062 105.617L397.034 105.383L396.8 104.41L395.827 104.645L396.062 105.617ZM397.863 110.951L396.431 105.014L395.459 105.248L396.891 111.186L397.863 110.951ZM392.757 106.851L397.012 111.41L397.743 110.728L393.488 106.169L392.757 106.851ZM392.732 107.558L393.463 106.875L392.781 106.144L392.05 106.827L392.732 107.558Z" fill="#D6E8E8"/>
<rect x="411.233" y="137.769" width="10.5105" height="9.54812" transform="rotate(-60 411.233 137.769)" stroke="#D6E8E8" stroke-width="2"/>
<line x1="415.874" y1="148.826" x2="428.625" y2="126.741" stroke="#D6E8E8" stroke-width="2"/>
<path d="M387.24 127.095C387.4 129.107 387.562 131.117 387.722 133.128C389.371 131.994 391.02 130.861 392.67 129.727" stroke="#D6E8E8" stroke-width="2" stroke-miterlimit="10"/>
<path d="M388.159 119.919C390.487 122.622 392.816 125.326 395.145 128.027" stroke="#D6E8E8" stroke-width="2" stroke-miterlimit="10"/>
<path d="M391.866 119.049C393.657 118.121 395.446 117.194 397.236 116.267C397.147 118.268 397.06 120.268 396.971 122.269" stroke="#D6E8E8" stroke-width="2" stroke-miterlimit="10"/>
<path d="M441.604 482.593L426 509.619C422.686 515.358 424.653 522.698 430.392 526.011L444.611 534.22C450.351 537.534 457.69 535.568 461.003 529.828L474.987 505.608C478.3 499.869 476.334 492.53 470.594 489.216L447.959 476.148C446.868 475.518 445.472 475.892 444.842 476.983V476.983" stroke="#D6E8E8" stroke-width="2"/>
<rect x="434.309" y="467.177" width="3.74879" height="29.951" rx="1.87439" transform="rotate(-28.9963 434.309 467.177)" stroke="#D6E8E8" stroke-width="2"/>
<line x1="446.008" y1="535.034" x2="471.767" y2="489.822" stroke="#D6E8E8" stroke-width="2"/>
<path d="M435.961 472.036L440.947 469.297" stroke="#D6E8E8" stroke-width="2"/>
<path d="M452.534 497.702L452.169 498.043L452.51 498.409L452.875 498.068L452.534 497.702ZM447.391 492.192L447.05 491.827L446.685 492.168L447.026 492.533L447.391 492.192ZM452.728 497.521L453.214 497.404L453.013 496.571L452.387 497.156L452.728 497.521ZM452.794 497.794L452.308 497.911L452.425 498.397L452.911 498.28L452.794 497.794ZM453.766 497.56L453.883 498.046L454.369 497.928L454.252 497.442L453.766 497.56ZM451.917 489.897L452.403 489.779L452.286 489.293L451.8 489.411L451.917 489.897ZM450.945 490.131L450.827 489.645L450.341 489.762L450.459 490.248L450.945 490.131ZM452.377 496.069L452.012 496.41L453.31 497.8L452.863 495.951L452.377 496.069ZM448.122 491.51L448.488 491.169L448.147 490.803L447.781 491.144L448.122 491.51ZM452.9 497.361L447.757 491.851L447.026 492.533L452.169 498.043L452.9 497.361ZM452.387 497.156L452.193 497.337L452.875 498.068L453.069 497.887L452.387 497.156ZM453.28 497.677L453.214 497.404L452.242 497.639L452.308 497.911L453.28 497.677ZM453.649 497.074L452.676 497.308L452.911 498.28L453.883 498.046L453.649 497.074ZM451.431 490.014L453.28 497.677L454.252 497.442L452.403 489.779L451.431 490.014ZM451.062 490.617L452.034 490.383L451.8 489.411L450.827 489.645L451.062 490.617ZM452.863 495.951L451.431 490.014L450.459 490.248L451.891 496.186L452.863 495.951ZM447.757 491.851L452.012 496.41L452.743 495.728L448.488 491.169L447.757 491.851ZM447.732 492.558L448.463 491.875L447.781 491.144L447.05 491.827L447.732 492.558Z" fill="#D6E8E8"/>
<rect x="466.233" y="522.769" width="10.5105" height="9.54812" transform="rotate(-60 466.233 522.769)" stroke="#D6E8E8" stroke-width="2"/>
<line x1="470.874" y1="533.826" x2="483.625" y2="511.741" stroke="#D6E8E8" stroke-width="2"/>
<path d="M442.24 512.096C442.4 514.107 442.562 516.117 442.722 518.128C444.371 516.994 446.02 515.861 447.67 514.727" stroke="#D6E8E8" stroke-width="2" stroke-miterlimit="10"/>
<path d="M443.159 504.92C445.487 507.622 447.816 510.326 450.145 513.027" stroke="#D6E8E8" stroke-width="2" stroke-miterlimit="10"/>
<path d="M446.866 504.049C448.657 503.121 450.446 502.194 452.236 501.267C452.147 503.268 452.06 505.268 451.971 507.269" stroke="#D6E8E8" stroke-width="2" stroke-miterlimit="10"/>
<path d="M880.026 544.423L849.882 552.5C843.481 554.216 839.682 560.796 841.397 567.197L845.646 583.056C847.362 589.458 853.942 593.257 860.343 591.542L887.357 584.303C893.758 582.588 897.557 576.008 895.842 569.606L889.077 544.36C888.751 543.143 887.5 542.421 886.283 542.747V542.747" stroke="#D6E8E8" stroke-width="2"/>
<rect x="885.768" y="528.364" width="3.74879" height="29.951" rx="1.87439" transform="rotate(16.0037 885.768 528.364)" stroke="#D6E8E8" stroke-width="2"/>
<line x1="846.058" y1="584.62" x2="896.242" y2="570.864" stroke="#D6E8E8" stroke-width="2"/>
<path d="M883.5 532.968L888.962 534.557" stroke="#D6E8E8" stroke-width="2"/>
<path d="M877.071 562.837L876.571 562.82L876.554 563.319L877.054 563.336L877.071 562.837ZM877.331 555.304L877.348 554.804L876.848 554.787L876.831 555.287L877.331 555.304ZM877.336 562.846L877.762 563.107L878.209 562.376L877.353 562.346L877.336 562.846ZM877.189 563.085L876.763 562.825L876.502 563.251L876.929 563.512L877.189 563.085ZM878.043 563.607L877.782 564.033L878.209 564.294L878.469 563.868L878.043 563.607ZM882.154 556.881L882.58 557.142L882.841 556.715L882.415 556.454L882.154 556.881ZM881.301 556.359L881.561 555.933L881.135 555.672L880.874 556.099L881.301 556.359ZM878.115 561.571L877.615 561.554L877.55 563.454L878.542 561.832L878.115 561.571ZM878.33 555.338L878.83 555.356L878.847 554.856L878.347 554.839L878.33 555.338ZM877.571 562.854L877.83 555.321L876.831 555.287L876.571 562.82L877.571 562.854ZM877.353 562.346L877.088 562.337L877.054 563.336L877.319 563.346L877.353 562.346ZM877.616 563.346L877.762 563.107L876.909 562.585L876.763 562.825L877.616 563.346ZM878.303 563.18L877.45 562.659L876.929 563.512L877.782 564.033L878.303 563.18ZM881.727 556.62L877.616 563.346L878.469 563.868L882.58 557.142L881.727 556.62ZM881.04 556.786L881.893 557.307L882.415 556.454L881.561 555.933L881.04 556.786ZM878.542 561.832L881.727 556.62L880.874 556.099L877.688 561.31L878.542 561.832ZM877.83 555.321L877.615 561.554L878.615 561.588L878.83 555.356L877.83 555.321ZM877.313 555.804L878.313 555.838L878.347 554.839L877.348 554.804L877.313 555.804Z" fill="#D6E8E8"/>
<rect x="869.031" y="590.248" width="10.5105" height="9.54812" transform="rotate(-15 869.031 590.248)" stroke="#D6E8E8" stroke-width="2"/>
<line x1="864.495" y1="601.349" x2="889.128" y2="594.748" stroke="#D6E8E8" stroke-width="2"/>
<path d="M859.614 565.735C858.306 567.271 856.998 568.807 855.69 570.342C857.658 570.707 859.625 571.071 861.593 571.437" stroke="#D6E8E8" stroke-width="2" stroke-miterlimit="10"/>
<path d="M865.337 561.31C865.073 564.868 864.808 568.427 864.545 571.984" stroke="#D6E8E8" stroke-width="2" stroke-miterlimit="10"/>
<path d="M868.576 563.317C870.498 563.927 872.418 564.536 874.34 565.147C872.862 566.499 871.386 567.851 869.909 569.203" stroke="#D6E8E8" stroke-width="2" stroke-miterlimit="10"/>
<path d="M161.352 675.523L145.748 648.497C142.434 642.758 135.095 640.791 129.356 644.105L115.137 652.314C109.397 655.628 107.431 662.967 110.745 668.706L124.728 692.926C128.042 698.666 135.381 700.632 141.12 697.318L163.755 684.25C164.847 683.62 165.221 682.224 164.59 681.133V681.133" stroke="#D6E8E8" stroke-width="2"/>
<rect x="178.348" y="676.914" width="3.74879" height="29.951" rx="1.87439" transform="rotate(91.0037 178.348 676.914)" stroke="#D6E8E8" stroke-width="2"/>
<line x1="113.734" y1="653.118" x2="140.009" y2="698.031" stroke="#D6E8E8" stroke-width="2"/>
<path d="M173.315 675.915L173.194 681.602" stroke="#D6E8E8" stroke-width="2"/>
<path d="M142.8 677.435L142.687 676.948L142.2 677.061L142.313 677.548L142.8 677.435ZM150.143 675.737L150.63 675.624L150.518 675.137L150.031 675.249L150.143 675.737ZM142.859 677.693L142.718 678.172L143.54 678.415L143.347 677.58L142.859 677.693ZM142.592 677.614L142.733 677.134L142.254 676.993L142.112 677.472L142.592 677.614ZM142.309 678.573L141.829 678.431L141.688 678.911L142.168 679.053L142.309 678.573ZM149.87 680.803L149.728 681.283L150.208 681.424L150.349 680.945L149.87 680.803ZM150.153 679.844L150.632 679.985L150.774 679.506L150.294 679.364L150.153 679.844ZM144.295 678.116L144.182 677.629L142.329 678.058L144.153 678.596L144.295 678.116ZM150.369 676.711L150.481 677.198L150.968 677.085L150.856 676.598L150.369 676.711ZM142.913 677.923L150.256 676.224L150.031 675.249L142.687 676.948L142.913 677.923ZM143.347 677.58L143.287 677.323L142.313 677.548L142.372 677.805L143.347 677.58ZM142.45 678.093L142.718 678.172L143.001 677.213L142.733 677.134L142.45 678.093ZM142.789 678.714L143.072 677.755L142.112 677.472L141.829 678.431L142.789 678.714ZM150.011 680.324L142.45 678.093L142.168 679.053L149.728 681.283L150.011 680.324ZM149.673 679.703L149.39 680.662L150.349 680.945L150.632 679.985L149.673 679.703ZM144.153 678.596L150.011 680.324L150.294 679.364L144.436 677.636L144.153 678.596ZM150.256 676.224L144.182 677.629L144.407 678.603L150.481 677.198L150.256 676.224ZM149.656 675.849L149.881 676.824L150.856 676.598L150.63 675.624L149.656 675.849Z" fill="#D6E8E8"/>
<rect x="114.243" y="676.765" width="10.5105" height="9.54812" transform="rotate(60 114.243 676.765)" stroke="#D6E8E8" stroke-width="2"/>
<line x1="102.346" y1="675.256" x2="115.098" y2="697.342" stroke="#D6E8E8" stroke-width="2"/>
<path d="M135.482 661.324C133.66 660.457 131.838 659.592 130.016 658.725C130.174 660.72 130.331 662.715 130.487 664.711" stroke="#D6E8E8" stroke-width="2" stroke-miterlimit="10"/>
<path d="M141.239 665.707C137.734 666.372 134.228 667.038 130.724 667.704" stroke="#D6E8E8" stroke-width="2" stroke-miterlimit="10"/>
<path d="M140.137 669.354C140.045 671.369 139.954 673.381 139.862 675.396C138.173 674.318 136.485 673.243 134.797 672.165" stroke="#D6E8E8" stroke-width="2" stroke-miterlimit="10"/>
</svg>
