<svg width="328" height="286" viewBox="0 0 328 286" fill="none" xmlns="http://www.w3.org/2000/svg">
<rect y="253.437" width="104.511" height="30.2083" fill="#465B65"/>
<path fill-rule="evenodd" clip-rule="evenodd" d="M116.748 124.751H125.204V129.549C127.876 130.109 130.364 131.189 132.567 132.682L136.027 129.113L142.006 135.281L138.567 138.828C140.059 141.133 141.136 143.747 141.689 146.558H146.342V155.281H141.689C141.141 158.065 140.079 160.657 138.61 162.946L142.006 166.449L136.027 172.617L132.631 169.113C130.413 170.629 127.902 171.724 125.204 172.29V177.088H116.748V172.291C114.022 171.72 111.487 170.609 109.252 169.07L105.814 172.617L99.8354 166.449L103.295 162.88C101.847 160.607 100.799 158.039 100.257 155.281H95.6074V146.558H100.257C100.805 143.774 101.867 141.183 103.336 138.894L99.8335 135.281L105.813 129.113L109.315 132.726C111.535 131.209 114.048 130.113 116.748 129.548V124.751Z" fill="#44AD4E"/>
<ellipse cx="120.974" cy="150.92" rx="14.8703" ry="15.34" fill="white"/>
<path fill-rule="evenodd" clip-rule="evenodd" d="M75.0157 117.013L80.0746 115.615L80.8202 118.485C82.5052 118.378 84.1615 118.612 85.7106 119.14L87.2252 116.434L91.7609 119.135L90.2567 121.823C91.5085 122.956 92.5604 124.343 93.3288 125.934L96.1086 125.166L97.4642 130.384L94.6846 131.153C94.7896 132.91 94.5569 134.636 94.0332 136.249L96.6075 137.782L93.9888 142.461L91.4143 140.928C90.3216 142.203 88.9877 143.274 87.4595 144.059L88.2046 146.927L83.1456 148.326L82.4001 145.455C80.6813 145.564 78.9925 145.318 77.4168 144.767L75.9102 147.459L71.3745 144.757L72.8912 142.047C71.6728 140.927 70.648 139.564 69.8954 138.004L67.1094 138.775L65.7539 133.556L68.5402 132.786C68.4356 131.031 68.668 129.306 69.1908 127.694L66.5303 126.11L69.149 121.431L71.8086 123.015C72.9007 121.74 74.2339 120.669 75.7613 119.884L75.0157 117.013Z" fill="#465B65"/>
<ellipse rx="9.18517" ry="9.43589" transform="matrix(0.963856 -0.266422 0.251402 0.967883 81.532 131.888)" fill="white"/>
<rect x="24.2344" y="207.083" width="285.765" height="9.89583" fill="#465B65"/>
<path d="M0.503906 283.646V253.958H104.51V283.646H0.503906Z" stroke="#465B65"/>
<rect x="24.2344" y="60.2083" width="285.765" height="10.4167" fill="#465B65"/>
<rect x="32.8145" y="71.125" width="269.114" height="135.458" stroke="#465B65"/>
<path d="M265.538 159.854C242.756 159.854 235.911 130.383 232.854 125.201C226.049 113.667 207.164 87.6775 204.568 61.4002C201.65 31.8607 217.645 3.31383 265.38 1C314.406 3.91475 330.754 39.801 326.191 68.3632C321.954 94.8918 298.365 117.773 295.397 125.201C290.997 136.212 283.924 159.854 265.538 159.854Z" fill="white" stroke="#465B65"/>
<path d="M245.296 161.134C238.875 159.054 244.614 155.176 248.286 153.497C248.286 153.497 256.245 159.997 265.282 159.997C275.039 159.997 281.492 151.222 281.492 151.222C290.43 153.172 288.154 156.909 285.898 158.534C289.423 160.224 287.367 163.355 285.898 164.709C289.423 165.879 287.367 169.205 285.898 170.722C291.312 173.062 285.216 176.897 281.492 178.522C282.646 184.588 280.547 194.934 265.282 195.747C249.548 196.584 247.394 185.455 248.286 180.797C239.599 178.717 242.149 175.163 244.509 173.647C240.354 171.177 242.778 168.718 244.509 167.797C240.229 164.937 243.25 162.163 245.296 161.134Z" fill="#465B65"/>
<path d="M217.284 37.3084C207.721 37.3084 210.202 28.425 212.563 24.9583H201.704V38.1209C201.704 40.4609 198.872 39.6376 197.455 38.9334C194.046 37.3626 187.195 36.0084 187.069 43.1584C186.911 52.096 194.78 49.6585 197.455 48.6835C199.596 47.9035 201.18 49.7668 201.704 50.796V64.4461H211.933C210.727 58.7585 209.258 50.796 218.7 50.796C225.782 50.796 225.205 60.6002 223.264 63.7961H235.225V50.796C235.225 45.9209 239.474 48.846 239.474 48.6835C239.474 48.521 248.916 50.796 248.916 44.6209C248.916 36.4959 242.936 38.1209 239.474 38.9334C236.704 39.5834 235.487 38.1209 235.225 37.3084V24.9583H223.264C225.205 29.725 227.041 37.3084 217.284 37.3084Z" fill="#465B65"/>
<path d="M245.296 161.134C238.875 159.054 244.614 155.176 248.286 153.497C248.286 153.497 256.245 159.997 265.282 159.997C275.039 159.997 281.492 151.222 281.492 151.222C290.43 153.172 288.154 156.909 285.898 158.534C289.423 160.224 287.367 163.355 285.898 164.709C289.423 165.879 287.367 169.205 285.898 170.722C291.312 173.062 285.216 176.897 281.492 178.522C282.646 184.588 280.547 194.934 265.282 195.747C249.548 196.584 247.394 185.455 248.286 180.797C239.599 178.717 242.149 175.163 244.509 173.647C240.354 171.177 242.778 168.718 244.509 167.797C240.229 164.937 243.25 162.163 245.296 161.134Z" stroke="#465B65"/>
<path d="M217.284 37.3084C207.721 37.3084 210.202 28.425 212.563 24.9583H201.704V38.1209C201.704 40.4609 198.872 39.6376 197.455 38.9334C194.046 37.3626 187.195 36.0084 187.069 43.1584C186.911 52.096 194.78 49.6585 197.455 48.6835C199.596 47.9035 201.18 49.7668 201.704 50.796V64.4461H211.933C210.727 58.7585 209.258 50.796 218.7 50.796C225.782 50.796 225.205 60.6002 223.264 63.7961H235.225V50.796C235.225 45.9209 239.474 48.846 239.474 48.6835C239.474 48.521 248.916 50.796 248.916 44.6209C248.916 36.4959 242.936 38.1209 239.474 38.9334C236.704 39.5834 235.487 38.1209 235.225 37.3084V24.9583H223.264C225.205 29.725 227.041 37.3084 217.284 37.3084Z" stroke="#465B65"/>
<path d="M235.325 63.611H247.578C248.311 63.4487 249.558 62.6376 248.678 60.6909C247.578 58.2575 246.319 53.3907 251.817 53.2285C256.216 53.0987 256.061 57.933 255.433 60.6909C255.276 62.4213 255.558 65.655 257.946 64.7466H266.9H268.469C268.364 61.0694 268.217 53.2609 268.469 51.444C268.783 49.1728 266.9 47.0638 265.17 48.6861C263.439 50.3084 254.488 49.335 255.433 43.8193C256.378 38.3036 262.342 39.7636 265.17 40.5748C267.432 41.2237 268.312 39.0066 268.469 37.8169V28.0833H278.525C277.006 32.0308 275.978 39.8934 284.021 39.7636C292.064 39.6339 290.828 31.9227 289.205 28.0833H298.159V39.7636C298.892 40.3044 300.735 41.0615 302.244 39.7636C304.129 38.1414 311.355 40.5748 310.726 44.9549C310.098 49.335 306.328 51.444 302.244 49.335C298.159 47.2261 298.159 50.4706 298.159 50.7951V64.7466V76.1024C298.159 77.6598 297.217 78.0491 296.745 78.0492C293.813 76.535 287.822 74.8046 287.32 79.9959C286.691 86.485 291.718 86.8094 295.489 86.8094C298.505 86.8094 298.526 88.3235 298.159 89.0806V98.8142H295.489H290.462C288.702 98.8142 288.001 97.246 287.948 96.7052C287.948 93.677 290.305 87.7828 284.021 88.4317C279.308 88.9184 278.525 93.2985 278.525 95.8941C278.525 97.9706 277.162 98.8683 276.795 98.8142H266.9V111.468C266.9 114.323 269.414 114.28 270.671 113.901C273.497 112.82 279.026 112.084 278.525 117.795C277.9 124.933 272.867 123.148 270.671 122.337C268.913 121.688 267.425 122.607 266.9 123.148V136.937H258.572C256.792 136.829 253.673 135.834 255.433 132.72C257.632 128.826 255.433 127.042 251.817 126.879C248.201 126.717 247.578 131.097 248.678 132.72C249.558 134.017 248.311 135.315 247.578 135.802H237.365L236.11 132.72L235.325 124.284C235.829 121.818 233.02 122.499 231.552 123.148L225.269 112.766C227.939 110.819 229.196 112.766 232.183 113.901C234.573 114.81 235.797 113.523 236.11 112.766L235.951 99.6253L236.11 86.8094C235.953 85.836 235.577 84.4084 232.812 85.1871C229.356 86.1605 225.183 88.1072 224.483 81.4559C223.92 76.1024 227.889 75.1291 232.183 76.1024C233.23 76.481 235.325 76.7513 235.325 74.8046C235.325 72.8579 235.063 66.531 235.325 63.611Z" fill="#44AD4E"/>
<path d="M266.9 64.7466H257.946C255.558 65.655 255.276 62.4213 255.433 60.6909C256.061 57.933 256.216 53.0987 251.817 53.2285C246.319 53.3907 247.578 58.2575 248.678 60.6909C249.558 62.6376 248.311 63.4487 247.578 63.611H235.325C235.063 66.531 235.325 72.8579 235.325 74.8046C235.325 76.7513 233.23 76.481 232.183 76.1024C227.889 75.1291 223.92 76.1024 224.483 81.4559C225.183 88.1072 229.356 86.1605 232.812 85.1871C235.577 84.4084 235.953 85.836 236.11 86.8094L235.951 99.6253M266.9 64.7466V76.1024C267.11 77.1299 268.157 78.9576 270.671 78.0492C273.813 76.9136 278.211 76.1024 278.525 82.916C278.777 88.3668 273.394 87.7828 270.671 86.8094C269.414 86.3768 266.9 86.2254 266.9 89.0806C266.9 91.9358 266.9 96.7593 266.9 98.8142M266.9 64.7466H268.469M266.9 98.8142H276.795C277.162 98.8683 278.525 97.9706 278.525 95.8941C278.525 93.2985 279.308 88.9184 284.021 88.4317C290.305 87.7828 287.948 93.677 287.948 96.7052C288.001 97.246 288.702 98.8142 290.462 98.8142C292.221 98.8142 294.494 98.8142 295.489 98.8142H298.159V89.0806C298.526 88.3235 298.505 86.8094 295.489 86.8094C291.718 86.8094 286.691 86.485 287.32 79.9959C287.822 74.8046 293.813 76.535 296.745 78.0492C297.217 78.0491 298.159 77.6598 298.159 76.1024C298.159 74.5451 298.159 67.8829 298.159 64.7466M266.9 98.8142C266.9 98.8142 266.9 110.55 266.9 111.468C266.9 114.323 269.414 114.28 270.671 113.901C273.497 112.82 279.026 112.084 278.525 117.795C277.9 124.933 272.867 123.148 270.671 122.337C268.913 121.688 267.425 122.607 266.9 123.148V136.937H258.572C256.792 136.829 253.673 135.834 255.433 132.72C257.632 128.826 255.433 127.042 251.817 126.879C248.201 126.717 247.578 131.097 248.678 132.72C249.558 134.017 248.311 135.315 247.578 135.802H237.365L236.11 132.72L235.325 124.284C235.829 121.818 233.02 122.499 231.552 123.148L225.269 112.766C227.939 110.819 229.196 112.766 232.183 113.901C234.573 114.81 235.797 113.523 236.11 112.766L235.951 99.6253M266.9 98.8142L257.946 99.04C256.637 99.1481 254.302 99.82 255.433 102.545C256.847 105.952 257.789 108.872 253.233 111.468C248.678 114.064 243.524 106.537 248.678 102.545C250.406 101.207 248.047 98.7298 245.533 99.4869L235.951 99.6253M298.159 64.7466C298.159 60.2042 298.159 51.0546 298.159 50.7951C298.159 50.4706 298.159 47.2261 302.244 49.335C306.328 51.444 310.098 49.335 310.726 44.9549C311.355 40.5748 304.129 38.1414 302.244 39.7636C300.735 41.0615 298.892 40.3044 298.159 39.7636V28.0833H289.205C290.828 31.9227 292.064 39.6339 284.021 39.7636C275.978 39.8934 277.006 32.0308 278.525 28.0833H268.469V37.8169C268.312 39.0066 267.432 41.2237 265.17 40.5748C262.342 39.7636 256.378 38.3036 255.433 43.8193C254.488 49.335 263.439 50.3084 265.17 48.6861C266.9 47.0638 268.783 49.1728 268.469 51.444C268.217 53.2609 268.364 61.0694 268.469 64.7466M298.159 64.7466H288.577C287.948 64.2058 286.943 62.7998 287.948 61.502C289.205 59.8798 289.516 52.5796 284.021 52.4173C278.525 52.2551 277.109 57.6086 279.151 61.502C280.785 64.6168 278.68 64.9629 277.423 64.7466H268.469" stroke="#465B65"/>
<path d="M105.456 238.297C107.597 238.297 108.761 236.241 109.076 235.213H17.166V253.231C47.8027 253.826 109.076 254.659 109.076 253.231C109.076 251.802 106.663 251.77 105.456 251.932C103.442 247.906 104.617 241.164 105.456 238.297Z" fill="#465B65"/>
<path d="M109.076 285.208H119.62M29.599 219.467C27.4587 219.467 26.2941 217.411 25.9793 216.383H117.889V234.401C87.2526 234.996 25.9793 235.829 25.9793 234.401C25.9793 232.972 28.3925 232.94 29.599 233.102M29.599 219.467C31.7394 219.467 84.4198 219.467 110.492 219.467V231.966L29.599 233.102M29.599 219.467C30.4384 222.335 31.6135 229.077 29.599 233.102M105.456 238.297C107.597 238.297 108.761 236.241 109.076 235.213H17.166V253.231C47.8027 253.826 109.076 254.659 109.076 253.231C109.076 251.802 106.663 251.77 105.456 251.932M105.456 238.297H24.5629V250.796L105.456 251.932M105.456 238.297C104.617 241.164 103.442 247.906 105.456 251.932" stroke="#465B65"/>
<path d="M298.144 64.5417H307.989C307.989 64.5417 309.829 64.7114 310.514 63.5C312.281 60.375 306.727 52.3022 315.563 52.3022C325.66 52.3021 318.34 63.7604 322.126 65.0626H324.398H326.67L322.631 81.9896L313.796 98.9167C313.796 98.9167 317.738 93.9688 317.738 91.3646C317.738 91.3646 317.077 90.0625 314.805 90.0625C312.533 90.0625 310.024 94.8422 310.514 97.875C310.766 99.4375 309.252 98.9167 309.252 98.9167H298.144V87.4584C295.872 86.4167 295.115 86.9376 292.338 86.6771C289.228 86.3855 287.289 84.8542 287.289 80.4271C287.289 76.0001 291.076 76.0001 295.115 77.3021C299.154 78.6042 298.144 73.3959 298.144 73.3959V64.5417Z" fill="#465B65"/>
<path d="M29.7891 219.583H110.066V232.604H29.7891C31.5562 227.917 31.0513 225.312 29.7891 219.583Z" fill="#44AD4E"/>
<path d="M105.521 237.812H25.2447V250.833H105.521C103.754 246.146 104.259 243.542 105.521 237.812Z" fill="#44AD4E"/>
<rect x="163.078" y="216.979" width="9.08794" height="68.2292" fill="#465B65"/>
<path d="M164.845 226.354L164.34 237.031L119.405 285.208H108.803L164.845 226.354Z" fill="#465B65"/>
<path d="M171.155 226.354L171.66 237.031L216.595 285.208H227.197L171.155 226.354Z" fill="#465B65"/>
</svg>
