<svg width="319" height="288" viewBox="0 0 319 288" fill="none" xmlns="http://www.w3.org/2000/svg">
<rect x="0.5" y="74.2252" width="302.738" height="212.775" rx="4.5" fill="#465B65" stroke="#465B65"/>
<rect x="20.0957" y="78.6788" width="276.907" height="203.868" rx="4.5" fill="white" stroke="white"/>
<rect x="64.1328" y="211.788" width="17.8146" height="40.9735" fill="#465B65"/>
<rect x="81.9473" y="190.411" width="17.8146" height="62.351" fill="#44AD4E"/>
<rect x="120.248" y="201.99" width="17.8146" height="50.7715" fill="#465B65"/>
<rect x="138.062" y="176.159" width="17.8146" height="76.6026" fill="#44AD4E"/>
<rect x="176.363" y="169.033" width="17.8146" height="83.7285" fill="#465B65"/>
<rect x="194.18" y="147.656" width="17.8146" height="105.106" fill="#44AD4E"/>
<rect x="232.48" y="141.421" width="17.8146" height="111.341" fill="#465B65"/>
<rect x="250.295" y="130.732" width="17.8146" height="122.03" fill="#44AD4E"/>
<line x1="57.8965" y1="252.262" x2="279.688" y2="252.262" stroke="#465B65"/>
<line x1="58.3965" y1="154.781" x2="58.3965" y2="252.762" stroke="#465B65"/>
<path d="M99.0315 252.677H38.0166H30L155.593 127.084H205.028L209.877 113.96L205.028 120.404L188.716 110.264L176.079 115.95L164.193 105.858L144.904 120.404L112.838 112.833L95.4685 123.076L78.1773 104.571L70.0828 107.934L59.9062 102.976L70.0828 95.909L78.1773 104.571L99.0315 95.909L129.316 107.934L152.475 95.909L164.193 105.858L172.071 99.9173L188.716 110.264L193.894 107.934L211.341 110L230 59.5L183.5 49L275 1C300 40.5 307.5 63 317.5 78C297.5 73 289.5 70.5 271.5 66L267 81.212L242 168.503H176.079L99.0315 252.677Z" fill="white"/>
<path d="M38.0166 118.177L70.0828 95.909L95.4685 123.076L112.838 112.833L144.904 120.404L172.071 99.9173L205.028 120.404L209.877 113.96M35.3444 91.01L70.0828 107.934L99.0315 95.909L129.316 107.934L152.475 95.909L176.079 115.95L193.894 107.934L211.341 110M38.0166 252.677H99.0315L176.079 168.503H242L267 81.212L271.5 66C289.5 70.5 297.5 73 317.5 78C307.5 63 300 40.5 275 1L183.5 49L230 59.5L205.028 127.084H155.593L30 252.677H38.0166Z" stroke="#465B65"/>
<circle cx="69.5" cy="96" r="1.5" fill="#465B65"/>
<circle cx="70.5" cy="108" r="1.5" fill="#465B65"/>
<circle cx="99.5" cy="96" r="1.5" fill="#465B65"/>
<circle cx="95.5" cy="123" r="1.5" fill="#465B65"/>
<circle cx="112.5" cy="113" r="1.5" fill="#465B65"/>
<circle cx="128.5" cy="108" r="1.5" fill="#465B65"/>
<circle cx="151.5" cy="96" r="1.5" fill="#465B65"/>
<circle cx="145.5" cy="120" r="1.5" fill="#465B65"/>
<circle cx="172.5" cy="99" r="1.5" fill="#465B65"/>
<circle cx="176.5" cy="116" r="1.5" fill="#465B65"/>
<circle cx="193.5" cy="108" r="1.5" fill="#465B65"/>
<circle cx="204.5" cy="120" r="1.5" fill="#465B65"/>
<path d="M76.1231 224.62C74.8688 225.618 73.6403 225.202 73.4347 225.866C73.2085 226.594 74.3651 228.137 75.7426 228.359C77.1254 228.58 77.6034 227.258 80.5437 225.661C82.6718 224.501 83.5662 224.566 83.6176 223.999C83.7255 222.764 79.6184 220.579 77.8553 221.922C76.9763 222.58 77.3105 223.675 76.1231 224.62Z" fill="white"/>
<path d="M70.8781 236.861C70.4155 236.678 67.9379 240.012 68.9094 242.106C69.4183 243.201 70.8473 243.897 71.3151 243.519C71.3767 243.465 71.5309 243.309 71.4384 242.106C71.3305 240.638 71.0529 240.136 70.9295 238.949C70.7856 237.503 71.0632 236.937 70.8781 236.861Z" fill="white"/>
<path d="M80.9232 233.549C79.633 234.034 78.6204 235.405 78.6152 236.872C78.6152 239.446 81.7302 240.498 82.0746 240.611C83.4522 241.053 85.2565 240.951 85.534 240.196C85.7859 239.5 84.5008 238.912 84.3826 237.288C84.2901 236.009 85.0354 235.604 84.7681 234.795C84.398 233.684 82.4858 232.961 80.9232 233.549Z" fill="white"/>
</svg>
