<svg width="509" height="510" viewBox="0 0 509 510" fill="none" xmlns="http://www.w3.org/2000/svg">
<path fill-rule="evenodd" clip-rule="evenodd" d="M478.791 233.994C505.278 287.555 527.369 367.655 484.321 422.115C443.481 473.781 361.792 475.347 293.767 491.791C241.943 504.318 190.209 517.679 142.929 504.638C93.6692 491.05 49.2015 463.608 35.8814 420.658C23.0445 379.266 56.7439 335.822 77.1171 292.43C100.769 242.056 90.8982 120.783 145.823 91.5847C204.514 60.3848 311.494 100.509 370.096 117.296C430.849 134.699 454.072 184.006 478.791 233.994Z" fill="#44AD4E" fill-opacity="0.2"/>
<g clip-path="url(#clip0_1201_2387)">
<path d="M174.879 382.96L99.112 418.15C93.8229 420.607 87.5519 418.322 85.1004 413.05L2.98098 236.399C0.529452 231.126 2.83199 224.867 8.11429 222.41L83.8881 187.221C89.1772 184.764 95.4482 187.048 97.8998 192.321L180.019 368.978C182.471 374.244 180.168 380.51 174.879 382.96Z" fill="#465B65"/>
<path d="M156.831 351.09L87.023 383.506C85.2622 384.327 83.1696 383.561 82.3502 381.808L14.7436 236.378C13.9241 234.618 14.6962 232.534 16.4569 231.713L86.2645 199.298C88.0253 198.477 90.1179 199.243 90.9373 200.996L158.544 346.418C159.357 348.185 158.591 350.269 156.831 351.09Z" fill="white"/>
<path d="M130.204 394.199C135.248 393.965 139.155 389.695 138.931 384.661C138.706 379.628 134.435 375.736 129.391 375.97C124.347 376.204 120.44 380.474 120.664 385.507C120.889 390.541 125.16 394.432 130.204 394.199Z" stroke="white" stroke-miterlimit="10"/>
<path d="M103.195 258.579L50.8664 282.879L32.5273 243.431L84.8559 219.132L103.195 258.579Z" stroke="#144460" stroke-miterlimit="10"/>
<path d="M58.1211 296.909C75.5662 288.807 93.0046 280.712 110.45 272.61" stroke="#144460" stroke-miterlimit="10"/>
<path d="M67.8848 317.909C85.3299 309.807 102.768 301.712 120.213 293.61" stroke="#144460" stroke-miterlimit="10"/>
<path d="M63.0215 307.447C80.4666 299.345 97.905 291.25 115.35 283.148" stroke="#144460" stroke-miterlimit="10"/>
<path d="M72.9102 328.724C90.3553 320.622 107.794 312.526 125.239 304.424" stroke="#144460" stroke-miterlimit="10"/>
<path d="M138.811 336.025L87.1194 360.028L82.6836 350.483L134.376 326.481L138.811 336.025Z" fill="white" stroke="#144460" stroke-miterlimit="10"/>
<path d="M56.0791 245.008C55.0507 253.724 54.0284 262.446 53 271.162C60.6547 266.97 68.3156 262.779 75.9703 258.594C69.344 254.063 62.7116 249.539 56.0791 245.008Z" fill="#44AD4E"/>
<path d="M73.9384 245.503C73.1008 250.755 72.2633 256.014 71.4258 261.266C77.1899 258.368 82.9541 255.47 88.7182 252.572C83.7916 250.218 78.865 247.864 73.9384 245.503Z" fill="#44AD4E"/>
<path d="M65.6995 243.008C67.5701 243.008 69.0866 241.268 69.0866 239.121C69.0866 236.973 67.5701 235.233 65.6995 235.233C63.8289 235.233 62.3125 236.973 62.3125 239.121C62.3125 241.268 63.8289 243.008 65.6995 243.008Z" fill="#44AD4E"/>
<path d="M472.146 355.233H228.708C224.049 355.233 220.268 350.902 220.268 345.565V159.901C220.268 154.564 224.049 150.233 228.708 150.233H472.146C476.805 150.233 480.586 154.564 480.586 159.901V345.565C480.586 350.908 476.81 355.233 472.146 355.233Z" fill="#465B65"/>
<path d="M471.879 171.233H229.844V324.233H471.879V171.233Z" fill="white"/>
<path d="M333.821 253.063L258.222 252.865L257.514 188.237L333.112 188.435L333.821 253.063Z" stroke="#144460" stroke-miterlimit="10"/>
<path d="M370.918 194.055C396.118 194.161 421.317 194.274 446.517 194.38" stroke="#144460" stroke-miterlimit="10"/>
<path d="M370.918 212.447C396.118 212.553 421.317 212.666 446.517 212.772" stroke="#144460" stroke-miterlimit="10"/>
<path d="M370.918 227.772C396.118 227.878 421.317 227.991 446.517 228.097" stroke="#144460" stroke-miterlimit="10"/>
<path d="M370.918 246.171C396.118 246.277 421.317 246.39 446.517 246.496" stroke="#144460" stroke-miterlimit="10"/>
<path d="M393.678 302.882L319.003 303.518L318.701 287.89L393.376 287.246L393.678 302.882Z" fill="white" stroke="#144460" stroke-miterlimit="10"/>
<path d="M323.873 425.741C345.538 426.081 367.203 426.42 388.867 426.766C383.528 402.924 378.183 379.075 372.843 355.233C362.159 355.233 351.474 355.233 340.79 355.233C335.149 378.729 329.508 402.239 323.873 425.741Z" fill="#465B65"/>
<path d="M284.727 205.817C279.8 215.239 274.874 224.669 269.947 234.091C280.004 233.858 290.066 233.617 300.123 233.384C294.993 224.195 289.863 215.006 284.727 205.817Z" fill="#44AD4E"/>
<path d="M306.754 212.348C302.905 219.36 299.05 226.372 295.201 233.384C303.004 233.384 310.8 233.384 318.603 233.384C314.649 226.372 310.702 219.36 306.754 212.348Z" fill="#44AD4E"/>
<path d="M297.35 214.299C299.221 214.299 300.737 212.559 300.737 210.411C300.737 208.264 299.221 206.524 297.35 206.524C295.479 206.524 293.963 208.264 293.963 210.411C293.963 212.559 295.479 214.299 297.35 214.299Z" fill="#44AD4E"/>
<g filter="url(#filter0_d_1201_2387)">
<path d="M32.9167 89.7163C56.5213 90.0698 80.1259 90.4161 103.73 90.7696C117.531 79.5659 118.264 58.6784 109.895 49.2278C103.047 41.4949 89.4803 40.7244 79.1036 49.9347C74.8606 40.5547 65.303 36.8932 58.1655 40.7456C52.5307 43.7921 49.0205 51.1929 49.624 59.1379C42.0001 53.9708 32.1346 56.982 27.8361 65.4642C23.7224 73.5789 25.8778 84.3513 32.9167 89.7163Z" fill="white"/>
</g>
<path d="M464.373 426.062C456.712 426.062 449.052 426.062 441.397 426.062C438.792 408.829 436.187 391.595 433.582 374.37H471.726C469.275 391.595 466.824 408.829 464.373 426.062Z" fill="#EBEBEB"/>
<path d="M451.501 320.034C451.451 325.137 452.954 330.382 450.121 335.86C448.44 339.119 446.568 340.115 445.065 341.663C441.98 344.844 440.674 353.235 448.28 375.953C451.648 375.776 455.023 375.599 458.392 375.423C459.863 368.948 461.834 359.306 463.448 347.467C464.125 342.469 470.16 298.15 464.365 296.298C461.04 295.23 451.618 307.537 451.501 320.034Z" fill="#44AD4E"/>
<path d="M461.384 306.582C461.889 312.357 461.711 318.238 460.886 323.999C460.461 326.876 459.863 329.732 459.094 332.524C458.305 335.309 457.357 338.023 456.452 340.716C454.592 346.074 453.286 351.637 452.689 357.341C452.086 363.046 452.104 368.828 452.627 374.567L451.79 374.447L453.354 370.128L454.937 365.817C456.008 362.954 457.061 360.077 458.164 357.221C457.277 360.169 456.335 363.095 455.417 366.036L454.013 370.432L452.59 374.815L451.987 376.667L451.747 374.688C451.051 368.905 450.928 363.01 451.494 357.186C451.79 354.274 452.246 351.383 452.892 348.541C453.551 345.707 454.395 342.929 455.337 340.221C456.279 337.514 457.271 334.863 458.084 332.142C458.897 329.421 459.562 326.65 460.054 323.822C461.07 318.182 461.501 312.386 461.384 306.582Z" fill="#144460"/>
<path d="M471.263 377.006C458.854 377.006 446.445 377.006 434.036 377.006C433.882 376.13 433.728 375.246 433.574 374.37C436.062 374.37 438.556 374.37 441.044 374.37C451.267 374.37 461.49 374.37 471.719 374.37C471.571 375.246 471.417 376.123 471.263 377.006Z" fill="#DBDBDB"/>
<path d="M446.249 345.092C446.329 346.491 446.52 347.841 446.784 349.149C446.932 349.799 447.074 350.45 447.283 351.072C447.474 351.701 447.69 352.316 447.948 352.909C448.435 354.118 449.075 355.228 449.771 356.309C450.122 356.847 450.51 357.356 450.929 357.843C451.323 358.359 451.766 358.819 452.21 359.306L452.179 359.363C450.134 357.872 448.453 355.723 447.4 353.213C446.353 350.697 445.941 347.848 446.193 345.085L446.249 345.092Z" fill="#144460"/>
<path d="M449.203 426.062C455.946 414.455 462.684 402.849 469.427 391.249C467.739 402.856 466.058 414.462 464.371 426.062C459.315 426.062 454.259 426.062 449.203 426.062Z" fill="#DBDBDB"/>
<path d="M419.362 397.657C418.884 398.389 418.132 399.492 417.126 400.738C414.522 403.961 413.452 404.127 411.356 406.676C409.578 408.842 407.522 411.339 407.631 414.597C407.696 416.523 408.488 418.043 409.12 418.998C407.616 420.484 407.243 423.027 408.189 424.936C409.21 426.999 411.505 427.816 413.402 426.696C414.468 427.353 417.047 428.725 420.472 428.456C424.092 428.171 426.582 426.222 427.543 425.376C428.947 426.547 433.09 429.662 438.338 428.896C445.373 427.868 452.991 420.066 451.926 410.196C451.02 401.807 444.203 395.331 437.222 395.897C430.655 396.429 426.911 402.944 426.428 403.818C426.368 403.047 426.258 402.155 426.054 401.178C425.84 400.155 425.571 399.275 425.307 398.538C423.943 400.298 422.579 402.058 421.214 403.818C420.602 401.761 419.984 399.709 419.362 397.657Z" fill="#415465"/>
<path d="M410.058 409.533C410.098 410.191 410.282 410.699 410.601 411.082C410.919 411.465 411.348 411.694 411.92 411.734C411.691 411.945 411.373 412.02 411.064 411.968C410.755 411.922 410.461 411.734 410.237 411.477C410.023 411.208 409.879 410.865 409.849 410.511C409.814 410.162 409.879 409.802 410.058 409.533Z" fill="white"/>
<path d="M414.898 413.054C415.337 413.465 415.8 413.797 416.298 413.986C416.791 414.168 417.313 414.203 417.816 414.094C418.319 413.991 418.807 413.746 419.25 413.414C419.698 413.083 420.097 412.654 420.48 412.18C420.067 413.385 419.096 414.397 417.906 414.66C417.318 414.786 416.686 414.711 416.148 414.403C415.61 414.1 415.177 413.62 414.898 413.054Z" fill="white"/>
<path d="M418.617 406.459C418.921 405.847 419.324 405.373 419.757 404.927C420.196 404.493 420.659 404.093 421.226 403.818C420.923 404.43 420.519 404.904 420.086 405.35C419.648 405.784 419.185 406.184 418.617 406.459Z" fill="white"/>
<path d="M408.941 416.575C409.111 416.803 409.32 416.906 409.479 416.837C409.643 416.786 409.773 416.632 409.838 416.449L410.276 416.683C410.231 416.82 410.211 416.986 410.216 417.123C410.231 417.26 410.266 417.386 410.346 417.5C410.505 417.735 410.804 417.883 411.167 417.895C410.878 418.158 410.395 418.175 410.052 417.855C409.882 417.695 409.753 417.449 409.733 417.192C409.703 416.935 409.743 416.695 409.833 416.466L410.271 416.7C410.126 417.02 409.823 417.26 409.494 417.243C409.335 417.232 409.175 417.146 409.081 417.015C408.986 416.877 408.946 416.723 408.941 416.575Z" fill="white"/>
<path d="M412.66 417.015C413.98 416.94 415.289 417.032 416.594 417.169C417.898 417.323 419.193 417.523 420.477 417.895C419.153 417.975 417.848 417.878 416.544 417.741C415.244 417.586 413.945 417.386 412.66 417.015Z" fill="white"/>
<path d="M412.66 417.895C413.8 418.278 414.876 418.821 415.931 419.398C416.982 419.992 418.018 420.627 418.989 421.415C417.848 421.032 416.773 420.489 415.717 419.912C414.667 419.318 413.631 418.689 412.66 417.895Z" fill="white"/>
<path d="M412.293 418.775C413.473 419.632 414.558 420.615 415.619 421.638C416.67 422.673 417.695 423.736 418.621 424.936C417.441 424.084 416.356 423.096 415.295 422.073C414.245 421.044 413.219 419.975 412.293 418.775Z" fill="white"/>
<path d="M409.312 419.215C409.96 419.724 410.572 420.169 411.244 420.461C411.917 420.764 412.624 420.901 413.405 420.975C412.688 421.358 411.817 421.324 411.065 420.992C410.318 420.655 409.666 420.027 409.312 419.215Z" fill="white"/>
<path d="M414.897 421.855C414.334 421.798 413.796 421.935 413.358 422.238C412.92 422.541 412.581 422.998 412.437 423.541C412.278 424.079 412.297 424.684 412.467 425.239C412.636 425.799 412.96 426.302 413.413 426.696C412.865 426.519 412.377 426.033 412.113 425.416C411.834 424.799 411.775 424.044 411.969 423.364C412.163 422.678 412.626 422.113 413.189 421.844C413.736 421.564 414.384 421.57 414.897 421.855Z" fill="white"/>
<path d="M424.578 407.779C424.986 407.127 425.36 406.544 425.659 405.893C425.967 405.247 426.191 404.567 426.44 403.818C426.59 404.607 426.43 405.447 426.097 406.162C425.753 406.87 425.23 407.482 424.578 407.779Z" fill="white"/>
<path d="M445.421 417.895C444.475 419.609 443.155 421.089 441.557 422.038C439.944 422.975 438.036 423.164 436.269 422.655C435.383 422.381 434.551 421.81 433.954 420.987C433.351 420.169 432.998 419.152 432.803 418.135C432.415 416.094 432.574 414.008 432.281 412.065C432.136 411.111 431.808 410.162 431.091 409.728C430.393 409.27 429.497 409.35 428.701 409.653C427.884 409.956 427.162 410.488 426.659 411.271C426.151 412.048 425.838 412.985 425.648 413.951C425.464 414.923 425.399 415.929 425.404 416.935C425.414 417.94 425.489 418.946 425.688 419.929C426.062 421.895 426.833 423.77 427.929 425.37C426.749 423.85 425.912 421.975 425.454 419.998C425.225 419.003 425.125 417.969 425.091 416.946C425.061 415.917 425.106 414.883 425.275 413.865C425.444 412.848 425.758 411.837 426.315 410.974C426.858 410.105 427.69 409.482 428.556 409.156C429.413 408.819 430.443 408.688 431.325 409.242C431.758 409.505 432.111 409.939 432.33 410.425C432.559 410.911 432.689 411.431 432.769 411.951C433.057 414.02 432.883 416.066 433.242 418.015C433.416 418.981 433.739 419.912 434.277 420.655C434.82 421.398 435.557 421.941 436.373 422.221C438.022 422.747 439.879 422.633 441.447 421.775C443.041 420.952 444.385 419.541 445.421 417.895Z" fill="white"/>
<path d="M408.941 414.814C408.06 414.174 407.288 413.403 406.536 412.603C405.794 411.791 405.082 410.945 404.475 409.974C405.356 410.614 406.128 411.385 406.88 412.185C407.616 413.003 408.329 413.848 408.941 414.814Z" fill="#E6E6E6"/>
<path d="M408.569 415.694C407.633 415.54 406.746 415.22 405.875 414.86C405.009 414.483 404.157 414.071 403.355 413.494C404.292 413.648 405.178 413.969 406.049 414.329C406.916 414.706 407.767 415.117 408.569 415.694Z" fill="#E6E6E6"/>
<path d="M408.568 416.574C407.587 416.872 406.597 416.997 405.606 417.077C404.615 417.14 403.619 417.163 402.613 417.015C403.594 416.717 404.585 416.592 405.576 416.512C406.567 416.449 407.563 416.426 408.568 416.574Z" fill="#E6E6E6"/>
<path d="M437.602 398.538C436.387 399.595 435.197 399.155 434.998 399.858C434.779 400.629 435.899 402.264 437.234 402.498C438.573 402.732 439.036 401.332 441.884 399.641C443.946 398.412 444.812 398.48 444.862 397.88C444.967 396.572 440.988 394.257 439.28 395.68C438.429 396.377 438.753 397.537 437.602 398.538Z" fill="white"/>
<path d="M432.522 411.505C432.074 411.311 429.674 414.843 430.615 417.06C431.108 418.221 432.492 418.958 432.946 418.558C433.005 418.501 433.155 418.335 433.065 417.06C432.96 415.506 432.692 414.974 432.572 413.717C432.433 412.185 432.702 411.585 432.522 411.505Z" fill="white"/>
<path d="M442.253 407.996C441.003 408.51 440.023 409.962 440.018 411.517C440.018 414.243 443.035 415.357 443.369 415.477C444.703 415.946 446.451 415.837 446.72 415.037C446.964 414.3 445.719 413.677 445.604 411.957C445.515 410.602 446.237 410.174 445.978 409.316C445.619 408.139 443.767 407.373 442.253 407.996Z" fill="white"/>
<path d="M412.102 407.996C412.506 408.711 413.905 408.688 414.338 407.996C414.482 407.762 414.517 407.482 414.338 406.236C414.089 404.498 413.895 403.155 413.591 403.155C413.382 403.155 413.352 403.79 412.844 405.356C412.257 407.19 411.878 407.59 412.102 407.996Z" fill="white"/>
<path d="M163.564 237.158C165.507 244.15 169.253 254.656 176.923 265.448C178.273 267.341 183.118 273.901 195.908 284.92C208.642 295.89 213.983 297.171 227.312 308.08C235.015 314.39 240.755 320.091 244.22 323.704C255.77 323.755 267.328 323.805 278.879 323.856C268.295 311.418 259.272 300.938 252.136 292.637C249.096 289.104 246.688 286.563 242.981 283.408C237.026 278.335 232.706 276.231 228.17 273.447C220.382 268.663 219.946 266.555 204.561 253.552C199.875 249.587 193.116 243.952 184.742 237.243C181.84 237.704 178.436 238.043 174.623 238.054C170.415 238.071 166.682 237.68 163.564 237.158Z" fill="#FFDDD3"/>
<path d="M153.045 238.95C149.5 259.733 150.207 264.233 152.836 273.832C155 281.733 154.006 279.054 155 286.233C155.446 289.479 157.969 296.548 157 298.233C147.541 301.91 145.387 304.767 134.639 310.51C127.719 314.204 121.336 317.987 115.491 321.736C121.59 329.538 127.682 337.34 133.78 345.142C145.852 339.292 145.883 336.379 153.045 332.233C165.526 325.007 181.13 315.271 187.83 303.403C192.314 295.464 190.904 289.744 190 287.733C189.727 287.124 186.5 279.733 186.5 279.733C185.588 277.976 184.039 273.832 184.039 266.233C181.616 262.165 182.5 266.233 180.5 255.233C176.371 248.274 176.504 242.897 174.222 239.042C171.32 239.503 167.916 239.842 164.104 239.853C159.895 239.856 156.162 239.465 153.045 238.95Z" fill="#FFDDD3"/>
<path d="M168.818 159.419C170.022 160.676 170.218 164.486 170.616 172.115C170.779 175.29 170.765 176.802 169.881 178.474C168.49 181.097 165.924 182.295 164.571 182.805C165.37 184.611 166.168 186.417 166.959 188.216C166.894 188.597 166.728 189.289 166.216 189.965C165.483 190.938 164.513 191.266 164.095 191.405C162.381 191.963 160.841 191.377 160.1 191.091C157.854 190.233 156.624 188.531 156.139 187.765C156.204 185.857 156.034 184.28 155.898 183.127C155.802 182.293 155.623 181.324 155.316 180.269C154.926 178.939 154.435 177.827 153.965 176.948C153.476 177.158 152.534 177.465 151.538 177.157C149.469 176.518 148.046 173.508 149.18 171.343C149.858 170.045 151.346 169.274 152.966 169.232C151.732 165.084 153.407 160.603 157.046 158.3C161.139 155.696 166.318 156.814 168.818 159.419Z" fill="#FFDDD3"/>
<path d="M158.233 163.614C158.835 163.299 159.713 163.09 159.861 163.338C160.022 163.608 159.332 164.425 158.538 164.845C157.936 165.161 157.058 165.369 156.91 165.121C156.742 164.845 157.431 164.035 158.233 163.614Z" fill="#144460" stroke="#144460" stroke-width="0.7" stroke-miterlimit="10"/>
<path d="M171.008 161.867C172.257 160.912 170.885 154.325 166.1 151.95C162.67 150.246 158.189 151.053 154.773 154.021C152.094 153.656 150.145 154.063 149.112 154.703C141 159.733 144.892 166.083 146 174.733C146.447 180.863 142.845 185.304 143.293 191.435C147.775 190.274 152.265 189.12 156.747 187.959C156.899 183.881 156.142 180.845 155.373 178.764C154.149 175.472 152.621 173.818 153.206 171.262C153.689 169.136 155.139 169.058 155.425 166.747C155.777 163.914 154.106 162.656 154.821 160.934C155.664 158.902 158.978 158.231 161.072 158.212C166.773 158.145 169.816 162.781 171.008 161.867Z" fill="#144460" stroke="#144460" stroke-miterlimit="10"/>
<path d="M166.364 162.49C165.686 162.417 164.794 162.547 164.75 162.837C164.699 163.147 165.645 163.646 166.536 163.742C167.215 163.816 168.106 163.685 168.15 163.396C168.201 163.085 167.262 162.586 166.364 162.49Z" fill="#144460" stroke="#144460" stroke-width="0.7" stroke-miterlimit="10"/>
<path d="M159.666 167.473C159.256 167.478 158.957 167.929 158.863 168.254C158.641 169.037 159.315 170.016 159.789 169.983C160.285 169.942 160.792 168.757 160.406 168.013C160.392 167.985 160.112 167.468 159.666 167.473Z" fill="#144460" stroke="#144460" stroke-width="0.7" stroke-miterlimit="10"/>
<path d="M166.036 166.794C165.625 166.785 165.298 167.165 165.184 167.483C164.919 168.238 165.629 169.245 166.11 169.211C166.619 169.171 167.141 167.937 166.727 167.242C166.713 167.214 166.453 166.803 166.036 166.794Z" fill="#144460" stroke="#144460" stroke-width="0.7" stroke-miterlimit="10"/>
<path d="M163.188 171.022C163.123 171.22 163.08 171.481 163.185 171.729C163.451 172.374 164.434 172.314 164.552 172.753C164.608 172.965 164.465 173.311 163.656 173.887" stroke="#144460" stroke-width="0.7" stroke-miterlimit="10"/>
<path d="M160.426 176.651C160.779 176.858 161.802 177.399 163.196 177.271C164.491 177.157 165.364 176.524 165.69 176.264" stroke="#144460" stroke-width="0.7" stroke-miterlimit="10"/>
<path d="M172.553 188.657C172.313 188.557 171.275 188.086 169.798 187.804C168.95 187.645 168.193 187.585 167.571 187.568C166.508 189.684 164.387 191.067 162.038 191.17C158.507 191.317 156.511 188.488 156.391 188.318C154.784 188.686 153.177 189.06 151.577 189.428C149.469 195.872 147.465 202.897 145.699 210.474C142.621 223.707 140.843 230.817 140.602 240.557C140.326 251.872 142.185 260.412 144.015 268.846C146.442 280.025 149.677 289.143 152.386 295.743C176.239 287.365 200.084 278.987 223.937 270.608C211.019 259.716 198.094 248.816 185.176 237.924C184.292 232.965 182.944 225.897 181.021 217.407C179.342 209.984 177.645 203.325 177.631 203.332C177.624 203.332 178.249 205.965 181.021 217.407C197.271 212.077 207.949 204.582 214.346 199.174C218.776 195.433 223.19 190.546 232.109 180.873C239.018 173.389 244.598 167.038 248.458 162.566C242.35 156.884 236.25 151.203 230.142 145.521C227.894 148.452 211.596 169.601 197.447 181.429C197.447 181.429 190.508 188.029 181.852 189.136C179.941 189.375 174.904 189.657 172.553 188.657Z" fill="#44AD4E"/>
<path d="M155.486 188.321C157.763 191.724 161.484 193.239 164.431 192.241C166.33 191.599 167.419 190.069 167.882 189.294" stroke="#144460" stroke-width="0.7" stroke-miterlimit="10"/>
<path d="M176.564 201.631C177.27 203.592 177.954 205.666 178.596 207.846C179.843 212.114 180.738 216.154 181.373 219.875" stroke="#144460" stroke-width="0.7" stroke-miterlimit="10"/>
<path d="M150.432 173.25C151.201 173.713 151.97 174.176 152.739 174.638C152.515 174.086 152.291 173.534 152.068 172.974" stroke="#144460" stroke-miterlimit="10"/>
<path d="M164.566 182.805C163.885 183.056 162.908 183.335 161.705 183.386C159.93 183.456 158.531 183.005 157.74 182.676C158.382 183.216 159.848 184.297 162.011 184.617C163.375 184.821 164.515 184.642 165.237 184.469C165.013 183.909 164.789 183.357 164.566 182.805Z" fill="#144460"/>
<path d="M70.1672 224.041C67.9952 220.9 66.3022 218.221 65.1223 216.286C60.0304 207.965 58.7452 204.235 58.4709 200.629C58.3037 198.429 58.4845 195.907 60.1115 194.26C60.3388 194.028 61.2767 193.077 61.9404 193.342C62.8796 193.714 62.3664 196.214 62.6212 199.424C62.7687 201.283 63.1765 203.469 64.1138 205.884C63.4809 203.407 63.1011 201.299 62.8674 199.736C62.3931 196.574 62.4482 195.302 63.2446 194.358C63.3086 194.281 64.2682 193.189 65.0735 193.44C66.0271 193.741 65.9549 195.692 66.5 200.466C66.9154 204.15 67.2964 205.976 67.254 205.982C67.2186 205.989 67.1384 204.9 66.5 200.466C66.1843 198.238 65.964 196.844 66.8039 195.653C67.0601 195.294 67.5228 194.639 68.0673 194.669C70.21 194.785 71.3593 205.343 71.331 205.343C71.324 205.343 71.2063 204.756 70.978 203.588C70.8672 203.044 70.5629 201.445 70.3379 199.514C69.9288 195.999 70.2364 195.216 70.6419 194.702C70.9121 194.356 71.2038 193.976 71.5929 193.964C73.8144 193.86 76.2104 205.64 76.1608 205.654C76.1396 205.661 75.4581 202.965 75.0213 200.948C74.2378 197.333 74.417 196.796 74.6936 196.628C75.3035 196.256 76.7483 197.457 77.368 198.096C78.6637 199.43 80.7534 201.963 82.9123 206.482C78.6498 212.323 74.4085 218.179 70.1672 224.041Z" fill="#FFDDD3"/>
<path d="M70.1675 224.041L66.8437 219.022L65.1641 216.498C64.6232 215.647 64.1035 214.79 63.5838 213.925C62.5587 212.196 61.5619 210.439 60.6786 208.625C59.8023 206.812 59.0183 204.928 58.6026 202.933C58.3877 201.935 58.2648 200.924 58.2268 199.913C58.1888 198.895 58.2357 197.863 58.4806 196.861C58.7255 195.858 59.1895 194.877 59.9284 194.124C60.2908 193.758 60.6814 193.392 61.2129 193.176C61.468 193.071 61.836 193.009 62.1464 193.208C62.4568 193.4 62.5615 193.719 62.6382 193.981C62.8528 195.049 62.7636 196.045 62.7875 197.049C62.7902 198.053 62.8283 199.042 62.9371 200.033C63.1549 202.006 63.6557 203.945 64.3832 205.8L63.8166 205.981C63.3089 203.993 62.8933 201.976 62.5768 199.946C62.4256 198.928 62.2744 197.909 62.2437 196.856C62.2389 196.333 62.2554 195.788 62.4205 195.245C62.5714 194.701 62.9202 194.187 63.325 193.828C63.7296 193.483 64.1982 193.083 64.9196 193.107C65.2732 193.13 65.6187 193.386 65.7802 193.655C65.9487 193.931 66.0183 194.2 66.095 194.462C66.3309 195.509 66.3972 196.528 66.5059 197.546C66.7022 199.582 66.9268 201.605 67.2221 203.621L67.456 205.135C67.4973 205.396 67.5388 205.623 67.5728 205.92L67.5727 205.955C67.5587 205.92 67.629 206.019 67.4653 206.244C67.3939 206.393 67.019 206.398 66.9001 206.094L66.8862 206.044L66.8655 205.924L66.838 205.726L66.7902 205.344L66.3861 202.31L65.9608 199.268C65.845 198.257 65.7013 197.139 66.1658 196.06C66.2801 195.806 66.4368 195.545 66.5934 195.341C66.7499 195.122 66.9206 194.904 67.1478 194.707C67.3679 194.517 67.6872 194.307 68.0973 194.344C68.5074 194.381 68.7751 194.622 68.9722 194.835C69.3664 195.282 69.5835 195.778 69.7936 196.267C69.9895 196.755 70.15 197.258 70.2964 197.753C70.8535 199.749 71.1983 201.779 71.4794 203.816L71.5751 204.58L71.6159 204.962L71.6363 205.16L71.6429 205.259L71.6496 205.337C71.6633 205.443 71.5493 205.633 71.436 205.668C71.2304 205.773 70.7943 205.213 70.9914 205.426L70.6868 203.905C70.5073 202.893 70.3633 201.875 70.1979 200.863C70.0255 199.851 69.8955 198.833 69.8364 197.794C69.8033 197.278 69.7914 196.754 69.8291 196.217C69.8739 195.694 69.9543 195.101 70.3101 194.608C70.4808 194.389 70.6232 194.185 70.8575 193.974C71.0635 193.77 71.4746 193.581 71.849 193.696C72.527 193.939 72.8148 194.449 73.1029 194.889C73.6506 195.81 74.0212 196.773 74.3707 197.75C75.0483 199.697 75.5701 201.685 76.0211 203.688C76.1321 204.19 76.2431 204.692 76.3399 205.195L76.409 205.584C76.402 205.57 76.43 205.64 76.387 205.76C76.337 205.873 76.2377 205.936 76.174 205.943C76.089 205.964 75.9055 205.878 75.8706 205.772C75.8286 205.673 75.8566 205.73 75.8426 205.701L75.8147 205.602L75.766 205.411L75.5783 204.661C75.3351 203.663 75.106 202.673 74.8841 201.668C74.6692 200.663 74.4543 199.666 74.3031 198.64C74.2346 198.124 74.1519 197.622 74.211 197.049C74.2258 196.908 74.2619 196.746 74.3829 196.576C74.5251 196.407 74.7234 196.345 74.8932 196.331C75.2399 196.319 75.4939 196.447 75.741 196.568C76.6936 197.088 77.4401 197.841 78.1158 198.614C78.7985 199.388 79.4245 200.211 80.0079 201.054C81.1747 202.749 82.1641 204.556 83.0473 206.411L83.0964 206.511L83.0323 206.595L70.1675 224.041ZM70.1675 224.041L82.7504 206.368L82.7355 206.551C81.8451 204.717 80.8485 202.938 79.6815 201.279C79.0981 200.449 78.472 199.648 77.7963 198.896C77.1276 198.144 76.395 197.434 75.5412 196.97C75.3365 196.863 75.1035 196.778 74.9336 196.791C74.8558 196.798 74.792 196.826 74.7707 196.854C74.7422 196.896 74.7064 196.988 74.6989 197.094C74.6545 197.539 74.73 198.062 74.8057 198.55C74.9641 199.548 75.179 200.545 75.4081 201.536C75.6372 202.527 75.8804 203.524 76.1307 204.508L76.3256 205.244L76.3743 205.428L76.4022 205.513C76.3952 205.499 76.4232 205.57 76.3882 205.485C76.3603 205.4 76.1767 205.321 76.1058 205.363C76.0491 205.377 75.9429 205.405 75.8929 205.511C75.85 205.617 75.8781 205.673 75.8712 205.638L75.802 205.277C75.6981 204.782 75.5871 204.287 75.476 203.791C75.0037 201.81 74.4889 199.836 73.8182 197.924C73.4757 196.975 73.105 196.027 72.5993 195.19C72.3535 194.786 72.0229 194.375 71.712 194.282C71.472 194.175 71.1308 194.555 70.8461 194.956C70.5971 195.295 70.5173 195.761 70.4798 196.248C70.4493 196.736 70.4613 197.238 70.4945 197.74C70.5538 198.744 70.6908 199.755 70.8633 200.753C71.0287 201.757 71.1728 202.762 71.3524 203.759L71.6571 205.245C71.8613 205.465 71.4321 204.947 71.2266 205.031C71.1133 205.045 70.9923 205.221 71.0131 205.313C71.013 205.355 71.0132 205.299 71.0132 205.299L71.0065 205.207L70.9861 205.023L70.9453 204.648L70.8496 203.891C70.5683 201.883 70.2164 199.866 69.6731 197.927C69.3872 196.986 69.0663 195.96 68.5034 195.293C68.1866 194.952 67.9956 194.937 67.6549 195.225C67.3495 195.507 67.0293 195.944 66.8578 196.339C66.4934 197.164 66.588 198.182 66.7039 199.18L67.1222 202.214L67.5191 205.255L67.567 205.637L67.5945 205.821L67.6083 205.892C67.6083 205.892 67.6083 205.899 67.6083 205.892C67.4964 205.601 67.1285 205.621 67.0572 205.748C66.8936 205.952 66.9711 206.037 66.9501 205.988L66.9501 205.974L66.8401 205.245L66.6133 203.724C66.3251 201.694 66.1077 199.651 65.9114 197.621C65.8027 196.61 65.7364 195.577 65.5213 194.629C65.4586 194.403 65.396 194.169 65.2906 194.013C65.1852 193.85 65.0723 193.779 64.9097 193.757C64.5774 193.727 64.1448 193.994 63.8038 194.311C63.4417 194.627 63.2067 194.994 63.0704 195.439C62.9411 195.876 62.9107 196.371 62.9156 196.859C62.9396 197.848 63.0837 198.86 63.2279 199.864C63.5303 201.873 63.939 203.868 64.4396 205.842L63.873 206.024C63.1456 204.126 62.6521 202.131 62.4488 200.101C62.3471 199.09 62.3162 198.072 62.3206 197.061C62.3108 196.064 62.3931 195.026 62.2132 194.113C62.102 193.653 61.8553 193.454 61.4302 193.629C61.0263 193.79 60.6429 194.12 60.3019 194.458C59.6269 195.141 59.1845 196.037 58.9469 196.976C58.493 198.882 58.6467 200.933 59.0202 202.871C59.4149 204.824 60.1565 206.693 60.9974 208.513C61.8453 210.327 62.8067 212.098 63.8035 213.841C64.3019 214.713 64.8145 215.578 65.3342 216.435L66.95 218.966L70.1675 224.041Z" fill="#144460"/>
<path d="M150.741 189.82C147.97 189.306 145.501 190.992 144.352 191.8C130.8 201.325 122.419 214.196 113.826 217.113C108.074 219.067 98.8346 217.726 83.4694 203.55C78.9622 210.366 74.4479 217.175 69.9407 223.99C88.082 240.667 109.08 249.53 122.907 243.307C129.704 240.247 138.788 231.734 139.938 230.658C141.465 229.229 147.198 223.755 152.738 215.163C158.72 205.886 158.553 202.161 158.458 201.05C158.062 196.235 155.003 190.609 150.741 189.82Z" fill="#44AD4E"/>
<path d="M231.054 145.816C232.713 143.173 236.7 137.26 241.773 133.783C244.412 131.971 246.381 131.485 248.069 131.895C248.387 131.974 249.687 132.284 249.797 132.984C249.963 133.981 247.561 134.833 244.943 136.709C243.425 137.798 241.77 139.275 240.177 141.325C241.974 139.502 243.579 138.096 244.8 137.083C247.263 135.044 248.384 134.434 249.599 134.623C249.698 134.637 251.133 134.891 251.328 135.712C251.564 136.681 249.855 137.635 246.044 140.559C243.106 142.815 241.735 144.089 241.707 144.053C241.686 144.025 242.573 143.393 246.044 140.559C247.79 139.139 248.869 138.225 250.326 138.33C250.764 138.36 251.57 138.42 251.823 138.902C252.833 140.794 244.388 147.232 244.36 147.21C244.353 147.203 244.8 146.802 245.681 146C246.092 145.628 247.307 144.537 248.84 143.342C251.636 141.177 252.471 141.04 253.122 141.113C253.553 141.164 254.027 141.216 254.245 141.542C255.482 143.392 246.626 151.525 246.59 151.49C246.569 151.475 248.53 149.505 250.036 148.083C252.728 145.55 253.28 145.419 253.569 145.568C254.226 145.903 253.849 147.846 253.69 148.615C253.206 151.009 251.815 155.245 247.128 161.141C241.782 156.042 236.414 150.929 231.054 145.816Z" fill="#FFDDD3"/>
<path d="M231.053 145.815C232.727 143.122 234.577 140.529 236.709 138.17C237.776 136.995 238.912 135.876 240.14 134.856C241.376 133.851 242.674 132.902 244.148 132.244C244.885 131.915 245.665 131.664 246.485 131.597C247.306 131.516 248.133 131.653 248.903 131.947C249.277 132.111 249.701 132.289 249.932 132.75C250.051 132.984 250.001 133.287 249.886 133.492C249.779 133.711 249.616 133.858 249.46 133.999C248.821 134.54 248.126 134.919 247.452 135.34C246.091 136.154 244.778 137.018 243.6 138.052C242.414 139.079 241.341 140.233 240.38 141.473L239.993 141.132C241.492 139.605 243.062 138.149 244.709 136.777C245.539 136.095 246.363 135.406 247.327 134.852C247.809 134.578 248.348 134.341 248.942 134.287C249.551 134.233 250.123 134.384 250.645 134.619C250.914 134.74 251.182 134.904 251.4 135.174C251.625 135.429 251.729 135.854 251.608 136.2C251.5 136.538 251.301 136.778 251.102 136.982C250.91 137.193 250.697 137.376 250.491 137.552C249.653 138.248 248.788 138.866 247.943 139.513C246.24 140.785 244.565 142.092 242.932 143.457L242.322 143.97L242.009 144.23L241.96 144.265L241.931 144.286C241.896 144.307 241.974 144.272 241.839 144.335C241.627 144.363 241.436 144.369 241.388 144.051C241.51 143.634 241.48 143.86 241.502 143.783L241.559 143.733L241.722 143.6L242.971 142.608L245.456 140.598C246.286 139.93 247.082 139.219 248.032 138.623C248.507 138.335 249.046 138.083 249.64 138.001C249.931 137.952 250.249 137.961 250.518 137.983C250.793 138.006 251.083 138.042 251.387 138.143C251.669 138.236 252.043 138.435 252.19 138.839C252.33 139.221 252.258 139.581 252.158 139.856C251.95 140.428 251.623 140.879 251.295 141.323C250.619 142.197 249.859 142.957 249.085 143.703C248.304 144.441 247.494 145.145 246.671 145.834L245.421 146.846L244.783 147.338L244.612 147.465C244.577 147.514 244.336 147.577 244.216 147.484C244.032 147.547 244.142 146.614 244.162 146.947L244.205 146.905L244.283 146.834L244.581 146.56C245.355 145.828 246.186 145.146 247.009 144.457C247.84 143.775 248.635 143.057 249.515 142.432C249.948 142.116 250.395 141.807 250.863 141.519C251.331 141.238 251.82 140.965 252.408 140.819C252.698 140.742 253.045 140.744 253.313 140.788C253.582 140.824 253.886 140.854 254.204 141.025C254.55 141.189 254.746 141.642 254.723 141.974C254.714 142.313 254.614 142.596 254.514 142.864C254.064 143.915 253.388 144.76 252.727 145.613C252.051 146.451 251.333 147.247 250.594 148.028C249.862 148.809 249.102 149.562 248.335 150.308C247.951 150.681 247.56 151.047 247.163 151.406L246.85 151.68C246.85 151.687 246.694 151.793 246.567 151.757C246.433 151.721 246.398 151.7 246.349 151.551C246.293 151.402 246.428 151.219 246.421 151.24L246.442 151.219L246.513 151.142L246.655 150.994L247.224 150.424C248.744 148.925 250.25 147.419 251.932 146.055C252.145 145.886 252.365 145.724 252.599 145.57C252.848 145.437 253.068 145.24 253.513 145.249C253.754 145.278 253.923 145.441 254.021 145.59C254.112 145.746 254.161 145.902 254.189 146.057C254.244 146.355 254.243 146.637 254.228 146.92C254.152 148.022 253.9 149.067 253.605 150.112C252.356 154.263 249.957 157.907 247.311 161.246L247.183 161.408L247.035 161.266L231.053 145.815ZM231.053 145.815L247.269 161.013L247.001 161.033C249.597 157.694 251.933 154.049 253.118 149.99C253.391 148.98 253.629 147.935 253.69 146.911C253.698 146.656 253.692 146.402 253.651 146.182C253.616 145.949 253.49 145.8 253.426 145.8C253.327 145.785 253.065 145.911 252.873 146.045C252.66 146.185 252.455 146.34 252.256 146.501C250.637 147.837 249.138 149.372 247.632 150.864L247.078 151.434L246.943 151.575L246.879 151.638L246.865 151.652C246.843 151.687 246.978 151.518 246.908 151.377C246.838 151.256 246.81 151.228 246.697 151.178C246.584 151.128 246.442 151.219 246.456 151.219L246.74 150.966C247.131 150.607 247.514 150.241 247.898 149.875C248.658 149.136 249.404 148.383 250.129 147.609C250.854 146.835 251.558 146.046 252.219 145.222C252.866 144.398 253.521 143.545 253.907 142.628C253.993 142.402 254.064 142.169 254.065 141.971C254.052 141.78 254.017 141.674 253.869 141.589C253.721 141.503 253.473 141.46 253.219 141.43C252.957 141.394 252.766 141.4 252.54 141.449C251.626 141.699 250.739 142.36 249.895 142.964C249.036 143.575 248.248 144.293 247.431 144.968C246.622 145.65 245.806 146.325 245.031 147.057L244.74 147.324L244.669 147.387L244.641 147.415C244.654 147.748 244.728 146.857 244.572 146.899C244.467 146.8 244.24 146.855 244.219 146.89L244.368 146.778L244.992 146.293L246.228 145.288C247.037 144.605 247.832 143.909 248.599 143.177C249.359 142.446 250.105 141.7 250.738 140.882C251.336 140.122 252.034 138.958 251.172 138.785C250.755 138.663 250.197 138.604 249.751 138.673C249.284 138.734 248.83 138.937 248.397 139.197C247.532 139.73 246.73 140.441 245.892 141.109L243.401 143.112L242.144 144.103L241.995 144.223L241.974 144.237C241.981 144.173 241.938 144.406 242.053 144.004C241.983 143.707 241.828 143.685 241.63 143.712C241.509 143.776 241.601 143.726 241.58 143.733L241.594 143.726L241.623 143.705L241.921 143.459L242.531 142.946C244.171 141.575 245.867 140.267 247.578 138.995C248.429 138.356 249.302 137.738 250.104 137.07C250.481 136.739 250.914 136.366 251.028 136.013C251.15 135.696 250.84 135.362 250.403 135.162C249.958 134.962 249.463 134.833 249.003 134.881C248.536 134.921 248.069 135.117 247.629 135.362C246.743 135.867 245.912 136.542 245.089 137.21C243.449 138.553 241.872 139.981 240.373 141.487L239.986 141.146C240.974 139.885 242.083 138.717 243.304 137.683C244.518 136.642 245.88 135.765 247.249 134.965C247.922 134.558 248.631 134.172 249.207 133.694C249.491 133.448 249.704 133.152 249.585 132.897C249.466 132.628 249.113 132.428 248.774 132.292C248.061 132.014 247.29 131.876 246.526 131.943C245.762 132.004 245.004 132.219 244.289 132.527C242.85 133.143 241.544 134.056 240.302 135.033C239.067 136.018 237.924 137.115 236.836 138.27C234.669 140.6 232.769 143.151 231.053 145.815Z" fill="#144460"/>
<path d="M146.836 190.036C148.821 188.935 150.222 189.452 151.266 190.036C154.809 192.01 153.5 211.233 142 228.733" stroke="#144460" stroke-width="0.7" stroke-miterlimit="10"/>
<path d="M116.212 320.389C111.545 323.259 106.878 326.13 102.204 329.008C105.957 336.149 110.317 343.704 115.397 351.501C118.664 356.52 121.954 361.221 125.203 365.596C127.804 364.427 130.398 363.265 132.999 362.096C133.053 361.142 133.102 359.665 133.017 357.855C132.85 354.15 132.311 352.798 132.52 350.275C132.617 349.081 132.908 347.351 133.822 345.269C127.952 336.98 122.082 328.685 116.212 320.389Z" fill="#44AD4E"/>
<path d="M128.293 349.571C128.936 349.751 129.769 350.051 130.651 350.592C132.062 351.461 132.927 352.525 133.405 353.22" stroke="#144460" stroke-miterlimit="10"/>
<path d="M128.182 352.32C128.825 352.5 129.658 352.8 130.54 353.342C131.951 354.203 132.816 355.274 133.294 355.969" stroke="#144460" stroke-miterlimit="10"/>
<path d="M128.785 355.179C129.428 355.358 130.261 355.659 131.143 356.2C132.554 357.068 133.419 358.132 133.897 358.827" stroke="#144460" stroke-miterlimit="10"/>
<path d="M107.715 328.721C114.61 340.428 121.505 352.136 128.4 363.843" stroke="#144460" stroke-miterlimit="10"/>
<path d="M187.018 282.298C188.241 284.07 190.481 287.862 190.508 292.916C190.521 294.839 190.211 297.898 187.636 302.799C183.349 310.952 176.874 316.409 172.001 319.696" stroke="#144460" stroke-width="0.7" stroke-miterlimit="10"/>
</g>
<g filter="url(#filter1_d_1201_2387)">
<path d="M426.931 75.068C390.86 75.5452 354.79 76.0128 318.719 76.4899C307.219 68.9604 305.111 53.7199 311.727 45.0069C318.653 35.8836 334.764 34.4235 344.664 45.0069C341.031 27.4856 353.039 10.8232 369.131 8.74275C383.906 6.83411 398.624 17.6561 401.409 33.7841C413.06 26.808 428.135 30.8734 434.704 42.3253C440.99 53.2809 437.696 67.8247 426.931 75.068Z" fill="white"/>
</g>
<defs>
<filter id="filter0_d_1201_2387" x="17.7598" y="31.2325" width="113.57" height="75.537" filterUnits="userSpaceOnUse" color-interpolation-filters="sRGB">
<feFlood flood-opacity="0" result="BackgroundImageFix"/>
<feColorMatrix in="SourceAlpha" type="matrix" values="0 0 0 0 0 0 0 0 0 0 0 0 0 0 0 0 0 0 127 0" result="hardAlpha"/>
<feOffset dx="4" dy="4"/>
<feGaussianBlur stdDeviation="6"/>
<feColorMatrix type="matrix" values="0 0 0 0 0.775 0 0 0 0 0.8515 0 0 0 0 1 0 0 0 0.5 0"/>
<feBlend mode="normal" in2="BackgroundImageFix" result="effect1_dropShadow_1201_2387"/>
<feBlend mode="normal" in="SourceGraphic" in2="effect1_dropShadow_1201_2387" result="shape"/>
</filter>
<filter id="filter1_d_1201_2387" x="300" y="0.524902" width="153.877" height="91.9651" filterUnits="userSpaceOnUse" color-interpolation-filters="sRGB">
<feFlood flood-opacity="0" result="BackgroundImageFix"/>
<feColorMatrix in="SourceAlpha" type="matrix" values="0 0 0 0 0 0 0 0 0 0 0 0 0 0 0 0 0 0 127 0" result="hardAlpha"/>
<feOffset dx="4" dy="4"/>
<feGaussianBlur stdDeviation="6"/>
<feColorMatrix type="matrix" values="0 0 0 0 0.775 0 0 0 0 0.8515 0 0 0 0 1 0 0 0 0.5 0"/>
<feBlend mode="normal" in2="BackgroundImageFix" result="effect1_dropShadow_1201_2387"/>
<feBlend mode="normal" in="SourceGraphic" in2="effect1_dropShadow_1201_2387" result="shape"/>
</filter>
<clipPath id="clip0_1201_2387">
<rect width="498" height="396" fill="white" transform="translate(0 39.2329)"/>
</clipPath>
</defs>
</svg>
