<svg width="307" height="296" viewBox="0 0 307 296" fill="none" xmlns="http://www.w3.org/2000/svg">
<rect x="31" y="161" width="245" height="117" fill="white" stroke="#465B65" stroke-width="2"/>
<rect x="18" y="279" width="276" height="17" rx="5" fill="#44AD4E"/>
<path d="M66.2451 72.9716C67.1907 71.7293 68.6623 71 70.2236 71H246.821C248.519 71 250.101 71.8617 251.022 73.2882L302.022 152.288C304.169 155.615 301.781 160 297.821 160H10.0897C5.95301 160 3.60564 155.263 6.11114 151.972L66.2451 72.9716Z" fill="#465B65"/>
<rect x="86" y="51" width="36" height="19" fill="white" stroke="#465B65" stroke-width="2"/>
<rect x="74" y="37" width="60" height="13" rx="5" fill="#465B65"/>
<rect x="47.5" y="188.5" width="41" height="60" fill="white" stroke="#465B65"/>
<line x1="72.5" y1="188" x2="72.5" y2="230" stroke="#465B65"/>
<line x1="47" y1="229.5" x2="89" y2="229.5" stroke="#465B65"/>
<line x1="47" y1="207.5" x2="89" y2="207.5" stroke="#465B65"/>
<rect x="111.5" y="183.5" width="87" height="95" fill="white" stroke="#44AD4E"/>
<path d="M149.923 127.663C151.884 125.654 155.116 125.654 157.077 127.663L204.529 176.257C207.621 179.423 205.378 184.75 200.952 184.75H106.048C101.622 184.75 99.3788 179.423 102.471 176.257L149.923 127.663Z" fill="#44AD4E"/>
<rect x="218.5" y="188.5" width="41" height="60" fill="white" stroke="#465B65"/>
<line x1="238.5" y1="188" x2="238.5" y2="230" stroke="#465B65"/>
<line x1="218" y1="229.5" x2="260" y2="229.5" stroke="#465B65"/>
<line x1="218" y1="207.5" x2="260" y2="207.5" stroke="#465B65"/>
<rect x="123" y="200" width="61" height="79" fill="#465B65"/>
<rect x="47" y="230" width="42" height="19" fill="#465B65"/>
<rect x="218" y="230" width="42" height="19" fill="#465B65"/>
<g filter="url(#filter0_d_426_1547)">
<path d="M237.269 42.2677C218.384 42.5135 199.498 42.7543 180.612 43C174.591 39.1225 173.488 31.2741 176.951 26.7872C180.578 22.0889 189.013 21.337 194.196 26.7872C192.294 17.7642 198.581 9.18354 207.007 8.11219C214.742 7.12929 222.448 12.7023 223.907 21.0078C230.007 17.4153 237.9 19.5088 241.339 25.4062C244.63 31.048 242.906 38.5377 237.269 42.2677Z" fill="white"/>
</g>
<defs>
<filter id="filter0_d_426_1547" x="167" y="0" width="92" height="59" filterUnits="userSpaceOnUse" color-interpolation-filters="sRGB">
<feFlood flood-opacity="0" result="BackgroundImageFix"/>
<feColorMatrix in="SourceAlpha" type="matrix" values="0 0 0 0 0 0 0 0 0 0 0 0 0 0 0 0 0 0 127 0" result="hardAlpha"/>
<feOffset dx="4" dy="4"/>
<feGaussianBlur stdDeviation="6"/>
<feColorMatrix type="matrix" values="0 0 0 0 0.775 0 0 0 0 0.8515 0 0 0 0 1 0 0 0 0.5 0"/>
<feBlend mode="normal" in2="BackgroundImageFix" result="effect1_dropShadow_426_1547"/>
<feBlend mode="normal" in="SourceGraphic" in2="effect1_dropShadow_426_1547" result="shape"/>
</filter>
</defs>
</svg>
